<svg width="267" height="264" viewBox="0 0 267 264" fill="none" xmlns="http://www.w3.org/2000/svg">
<g filter="url(#filter0_d_2213_6932)">
<path d="M96.0544 31.015V124.943H52.998V31.015" fill="#5C62EC"/>
<path d="M96.0949 125.958H52.998C52.7288 125.958 52.4707 125.851 52.2803 125.661C52.09 125.47 51.983 125.212 51.983 124.943V31.015C51.983 30.7458 52.09 30.4876 52.2803 30.2973C52.4707 30.1069 52.7288 30 52.998 30C53.2672 30 53.5254 30.1069 53.7157 30.2973C53.9061 30.4876 54.013 30.7458 54.013 31.015V123.928H95.0799V31.015C95.0799 30.7458 95.1869 30.4876 95.3772 30.2973C95.5676 30.1069 95.8257 30 96.0949 30C96.3641 30 96.6223 30.1069 96.8127 30.2973C97.003 30.4876 97.1099 30.7458 97.1099 31.015V124.943C97.1099 125.212 97.003 125.47 96.8127 125.661C96.6223 125.851 96.3641 125.958 96.0949 125.958Z" fill="#12189B"/>
<path d="M62.7624 116.336C64.2086 116.336 65.3811 115.163 65.3811 113.717C65.3811 112.271 64.2086 111.099 62.7624 111.099C61.3161 111.099 60.1437 112.271 60.1437 113.717C60.1437 115.163 61.3161 116.336 62.7624 116.336Z" fill="#12189B"/>
<path d="M122.14 88.464C122.14 88.464 111.208 89.2862 106.326 90.0982C101.444 90.9102 94.1462 101.497 83.8034 102.583C73.4605 103.669 65.0766 103.933 62.0925 101.223C59.1084 98.5125 60.1945 93.1026 60.1945 93.1026H47.8927C40.6557 93.1026 40.1076 85.1653 44.8477 82.8105C44.8477 82.8105 36.7277 81.694 36.0273 75.9897C35.2052 69.5241 43.0308 69.1181 43.0308 69.1181C41.7192 67.3464 41.079 65.1668 41.2241 62.9672C41.5895 59.5263 47.9231 57.1817 47.9231 57.1817C47.9231 57.1817 44.2996 54.8269 46.8371 50.3C49.3746 45.7731 50.9986 46.5039 60.2249 46.5039C69.4513 46.5039 78.6776 45.7833 83.5699 47.59C88.4622 49.3967 103.474 55.913 107.636 56.0957C111.797 56.2784 122.181 55.7303 122.181 55.7303L122.14 88.464Z" fill="#FFC9B0"/>
<path d="M71.8973 104.379C66.9543 104.379 63.3409 103.73 61.4124 101.974C58.9358 99.7203 58.8749 96.0156 59.0373 94.1074H47.8723C43.5788 94.1074 41.4575 91.5902 40.9094 89.2455C40.669 88.2032 40.6858 87.1181 40.9581 86.0837C41.2304 85.0493 41.7501 84.0967 42.4725 83.3078C39.7929 82.5059 35.5299 80.547 34.9615 76.1114C34.8043 75.2197 34.8417 74.3045 35.0712 73.4285C35.3007 72.5526 35.7169 71.7366 36.2911 71.0364C37.6192 69.6191 39.3717 68.6716 41.2849 68.3365C40.3786 66.6598 39.9834 64.7544 40.1481 62.8555C40.4526 59.9222 43.9645 57.7805 46.0453 56.8366C44.8983 55.375 44.1269 52.9187 45.8727 49.8026C48.3696 45.3569 50.5011 45.3772 56.8449 45.4584H60.1538C62.2447 45.4584 64.3356 45.4584 66.3859 45.3874C73.3285 45.2656 79.8955 45.1438 83.8439 46.6054C85.0416 47.052 86.8381 47.7726 88.9189 48.6354C95.1611 51.1424 104.611 54.9385 107.585 55.0705C111.645 55.243 121.927 54.7152 122.028 54.7051C122.168 54.6975 122.307 54.7188 122.438 54.7677C122.569 54.8166 122.689 54.892 122.789 54.9893C122.888 55.0836 122.967 55.197 123.021 55.3226C123.075 55.4482 123.104 55.5834 123.104 55.7201V88.464C123.105 88.7213 123.008 88.9693 122.832 89.1577C122.657 89.3461 122.417 89.461 122.16 89.479C122.048 89.479 111.229 90.3011 106.448 91.103C104.763 91.377 102.52 93.1837 99.9113 95.2645C95.6686 98.6647 90.3805 102.907 83.854 103.587C79.8842 104.051 75.8936 104.315 71.8973 104.379ZM54.6423 47.4681C50.2981 47.4681 49.344 47.8437 47.6997 50.7872C45.6697 54.3397 48.1768 56.1261 48.461 56.3189C48.6258 56.4266 48.7558 56.5798 48.8351 56.7601C48.9144 56.9403 48.9396 57.1397 48.9076 57.3339C48.8861 57.5189 48.8141 57.6944 48.6995 57.8412C48.5849 57.988 48.4322 58.1004 48.258 58.1662C46.7659 58.7245 42.4522 60.8255 42.168 63.1194C42.0464 65.054 42.6107 66.9696 43.7615 68.5294C43.8772 68.6753 43.9506 68.8502 43.9735 69.035C43.9965 69.2198 43.9682 69.4074 43.8917 69.5771C43.8152 69.7469 43.6934 69.8924 43.5398 69.9976C43.3861 70.1028 43.2065 70.1637 43.0206 70.1737C43.0206 70.1737 39.5087 70.397 37.8238 72.4168C37.4384 72.9032 37.1619 73.4665 37.0131 74.0689C36.8643 74.6713 36.8465 75.2986 36.961 75.9084C37.5802 80.7804 44.8374 81.836 44.9085 81.8462C45.1234 81.8759 45.3232 81.9738 45.4785 82.1254C45.6338 82.277 45.7364 82.4744 45.7712 82.6886C45.7937 82.8935 45.7533 83.1003 45.6554 83.2816C45.5575 83.4629 45.4067 83.6101 45.2231 83.7036C44.3216 84.1672 43.6 84.9175 43.1718 85.8363C42.7437 86.7551 42.6333 87.7902 42.8582 88.7786C43.3454 90.8086 45.213 92.0774 47.852 92.0774H60.1538C60.3049 92.0746 60.4548 92.1057 60.5925 92.1683C60.7301 92.2309 60.8521 92.3235 60.9493 92.4392C61.0466 92.555 61.1168 92.691 61.1548 92.8374C61.1927 92.9838 61.1975 93.1368 61.1688 93.2852C61.1688 93.2852 60.235 98.1877 62.7522 100.471C65.6348 103.09 75.4498 102.441 83.6713 101.568C89.5989 100.948 94.6333 96.9189 98.673 93.6811C101.505 91.4176 103.941 89.4587 106.143 89.0933C110.203 88.4132 118.323 87.7433 121.105 87.5302V56.7858C118.334 56.9178 110.955 57.2426 107.534 57.1005C104.113 56.9584 94.948 53.2333 88.1881 50.5131C86.1581 49.6808 84.3311 48.9703 83.1131 48.4831C79.52 47.1535 73.1458 47.2651 66.396 47.3869C64.366 47.3869 62.2345 47.458 60.1335 47.458H56.7941L54.6423 47.4681Z" fill="#12189B"/>
<path d="M74.6683 94.1074H60.1944C59.9252 94.1074 59.6671 94.0005 59.4767 93.8101C59.2864 93.6198 59.1794 93.3616 59.1794 93.0924C59.1794 92.8232 59.2864 92.565 59.4767 92.3747C59.6671 92.1843 59.9252 92.0774 60.1944 92.0774H74.6683C74.9375 92.0774 75.1957 92.1843 75.3861 92.3747C75.5764 92.565 75.6833 92.8232 75.6833 93.0924C75.6833 93.3616 75.5764 93.6198 75.3861 93.8101C75.1957 94.0005 74.9375 94.1074 74.6683 94.1074Z" fill="#12189B"/>
<path d="M66.1626 83.8153H44.8476C44.5784 83.8153 44.3203 83.7084 44.1299 83.518C43.9396 83.3277 43.8326 83.0695 43.8326 82.8003C43.8326 82.5311 43.9396 82.2729 44.1299 82.0826C44.3203 81.8922 44.5784 81.7853 44.8476 81.7853H66.1626C66.4318 81.7853 66.69 81.8922 66.8803 82.0826C67.0707 82.2729 67.1776 82.5311 67.1776 82.8003C67.1776 83.0695 67.0707 83.3277 66.8803 83.518C66.69 83.7084 66.4318 83.8153 66.1626 83.8153Z" fill="#12189B"/>
<path d="M66.66 70.123H43.0004C42.7312 70.123 42.473 70.016 42.2826 69.8257C42.0923 69.6353 41.9854 69.3772 41.9854 69.108C41.9854 68.8388 42.0923 68.5806 42.2826 68.3902C42.473 68.1999 42.7312 68.093 43.0004 68.093H66.66C66.9292 68.093 67.1874 68.1999 67.3777 68.3902C67.5681 68.5806 67.675 68.8388 67.675 69.108C67.675 69.3772 67.5681 69.6353 67.3777 69.8257C67.1874 70.016 66.9292 70.123 66.66 70.123Z" fill="#12189B"/>
<path d="M65.0765 58.1866H47.8926C47.6234 58.1866 47.3652 58.0796 47.1748 57.8893C46.9845 57.6989 46.8776 57.4407 46.8776 57.1716C46.8776 56.9024 46.9845 56.6442 47.1748 56.4538C47.3652 56.2635 47.6234 56.1566 47.8926 56.1566H65.0765C65.3457 56.1566 65.6039 56.2635 65.7942 56.4538C65.9846 56.6442 66.0915 56.9024 66.0915 57.1716C66.0915 57.4407 65.9846 57.6989 65.7942 57.8893C65.6039 58.0796 65.3457 58.1866 65.0765 58.1866Z" fill="#12189B"/>
<path d="M121.795 90.5651V52.5736H112.497V90.5651H121.795Z" fill="white"/>
<path d="M121.795 91.5699H112.497C112.228 91.5699 111.97 91.463 111.78 91.2726C111.589 91.0823 111.482 90.8241 111.482 90.5549V52.5634C111.482 52.2943 111.589 52.0361 111.78 51.8457C111.97 51.6554 112.228 51.5484 112.497 51.5484H121.795C122.064 51.5484 122.322 51.6554 122.513 51.8457C122.703 52.0361 122.81 52.2943 122.81 52.5634V90.5549C122.81 90.8241 122.703 91.0823 122.513 91.2726C122.322 91.463 122.064 91.5699 121.795 91.5699ZM113.512 89.5399H120.78V53.5784H113.512V89.5399Z" fill="#12189B"/>
<path d="M215.713 93.0924H121.795V50.0361H215.713" fill="#EDEEFD"/>
<path d="M215.713 94.1074H121.795C121.526 94.1074 121.267 94.0005 121.077 93.8101C120.887 93.6198 120.78 93.3616 120.78 93.0924V50.0361C120.78 49.7669 120.887 49.5087 121.077 49.3184C121.267 49.128 121.526 49.0211 121.795 49.0211H215.713C215.982 49.0211 216.24 49.128 216.43 49.3184C216.621 49.5087 216.728 49.7669 216.728 50.0361C216.728 50.3053 216.621 50.5635 216.43 50.7538C216.24 50.9442 215.982 51.0511 215.713 51.0511H122.81V92.0774H215.713C215.982 92.0774 216.24 92.1843 216.43 92.3747C216.621 92.565 216.728 92.8232 216.728 93.0924C216.728 93.3616 216.621 93.6198 216.43 93.8101C216.24 94.0005 215.982 94.1074 215.713 94.1074Z" fill="#12189B"/>
<path d="M133.011 62.4089C134.457 62.4089 135.629 61.2365 135.629 59.7902C135.629 58.344 134.457 57.1715 133.011 57.1715C131.564 57.1715 130.392 58.344 130.392 59.7902C130.392 61.2365 131.564 62.4089 133.011 62.4089Z" fill="#12189B"/>
<path d="M191.941 119.32C191.941 119.32 192.764 108.399 193.576 103.506C194.388 98.614 204.974 91.3263 206.06 80.9835C207.146 70.6406 207.41 62.2567 204.7 59.2726C201.99 56.2885 196.58 57.3746 196.58 57.3746V45.0728C196.58 37.8358 188.643 37.2979 186.288 42.0278C186.288 42.0278 185.171 33.9078 179.467 33.2074C173.001 32.3853 172.595 40.2211 172.595 40.2211C170.826 38.9046 168.645 38.2638 166.445 38.4144C163.004 38.7696 160.659 45.1032 160.659 45.1032C160.659 45.1032 158.304 41.4898 153.777 44.0172C149.25 46.5445 149.981 48.1787 149.981 57.405C149.981 66.6314 149.261 75.8577 151.067 80.75C152.874 85.6423 159.39 100.644 159.573 104.806C159.756 108.967 159.208 119.35 159.208 119.35L191.941 119.32Z" fill="#FFC9B0"/>
<path d="M191.941 120.335H159.198C159.061 120.334 158.926 120.306 158.8 120.252C158.674 120.198 158.561 120.119 158.467 120.02C158.371 119.921 158.296 119.803 158.247 119.674C158.198 119.545 158.176 119.407 158.183 119.269C158.183 119.168 158.72 108.886 158.548 104.826C158.416 101.842 154.62 92.392 152.103 86.1396C151.27 84.1096 150.55 82.2623 150.073 81.0646C148.611 77.1163 148.723 70.5493 148.855 63.6067C148.855 61.5767 148.926 59.4655 148.926 57.3746C148.926 56.1464 148.926 55.0502 148.926 54.0656C148.845 47.7219 148.824 45.5904 153.26 43.1036C156.386 41.3477 158.842 42.0887 160.304 43.2661C161.319 41.2361 163.349 37.6734 166.323 37.3689C168.222 37.2042 170.127 37.5994 171.804 38.5057C172.143 36.5837 173.098 34.8239 174.524 33.4916C175.226 32.9215 176.043 32.5086 176.918 32.281C177.794 32.0534 178.708 32.0162 179.599 32.1721C184.024 32.7304 185.994 36.9933 186.795 39.6729C187.584 38.9506 188.537 38.4309 189.571 38.1586C190.606 37.8863 191.691 37.8695 192.733 38.1098C195.078 38.6681 197.595 40.7894 197.595 45.0727V56.2377C199.503 56.0855 203.208 56.1362 205.461 58.6128C208.425 61.871 208.252 69.9606 207.075 81.1154C206.395 87.6317 202.152 92.9198 198.752 97.1727C196.661 99.7711 194.865 102.024 194.58 103.699C193.789 108.48 192.977 119.31 192.967 119.411C192.944 119.666 192.825 119.903 192.635 120.074C192.445 120.245 192.197 120.339 191.941 120.335ZM160.263 118.305H191.008C191.221 115.534 191.891 107.434 192.571 103.344C192.936 101.141 194.895 98.7054 197.159 95.8735C200.396 91.8135 204.426 86.8095 205.045 80.882C205.918 72.6503 206.568 62.8454 203.949 59.9628C201.655 57.4354 196.844 58.3591 196.763 58.3692C196.614 58.398 196.461 58.3932 196.315 58.3553C196.169 58.3173 196.032 58.2471 195.917 58.1498C195.801 58.0525 195.708 57.9306 195.646 57.793C195.583 57.6553 195.552 57.5054 195.555 57.3542V45.0727C195.555 42.4337 194.317 40.5763 192.256 40.0891C191.268 39.8624 190.232 39.972 189.313 40.4003C188.393 40.8287 187.643 41.5514 187.181 42.454C187.085 42.6467 186.929 42.8036 186.738 42.9022C186.546 43.0007 186.328 43.0357 186.115 43.0021C185.901 42.9673 185.704 42.8647 185.552 42.7094C185.401 42.5542 185.303 42.3544 185.273 42.1394C185.273 42.0683 184.187 34.8009 179.325 34.1818C178.717 34.0681 178.091 34.0863 177.491 34.2352C176.89 34.384 176.328 34.66 175.844 35.0446C173.814 36.7295 173.6 40.2109 173.6 40.2413C173.591 40.4279 173.529 40.608 173.424 40.7621C173.318 40.9161 173.172 41.0379 173.002 41.1142C172.836 41.1841 172.655 41.2088 172.476 41.1856C172.298 41.1624 172.129 41.0922 171.987 40.9823C170.424 39.8377 168.51 39.2742 166.577 39.3888C164.283 39.6324 162.182 43.9359 161.623 45.428C161.558 45.6031 161.445 45.7566 161.297 45.8715C161.15 45.9865 160.973 46.0585 160.787 46.0795C160.601 46.1005 160.413 46.0697 160.244 45.9905C160.074 45.9114 159.93 45.787 159.827 45.631C159.634 45.3468 157.797 42.8905 154.295 44.8698C150.905 46.7678 150.915 47.7422 150.996 54.0048C150.996 55.0198 150.996 56.0956 150.996 57.334C150.996 59.4452 150.996 61.5462 150.925 63.6067C150.803 70.3564 150.692 76.7306 152.022 80.3237C152.448 81.491 153.168 83.2773 154.001 85.3378C156.721 92.1078 160.436 101.365 160.588 104.694C160.74 108.023 160.395 115.534 160.263 118.305Z" fill="#12189B"/>
<path d="M196.58 72.8635C196.311 72.8635 196.053 72.7565 195.862 72.5662C195.672 72.3758 195.565 72.1176 195.565 71.8485V57.3746C195.565 57.1054 195.672 56.8472 195.862 56.6568C196.053 56.4665 196.311 56.3596 196.58 56.3596C196.849 56.3596 197.107 56.4665 197.298 56.6568C197.488 56.8472 197.595 57.1054 197.595 57.3746V71.8485C197.595 72.1176 197.488 72.3758 197.298 72.5662C197.107 72.7565 196.849 72.8635 196.58 72.8635Z" fill="#12189B"/>
<path d="M186.278 64.3578C186.009 64.3578 185.75 64.2508 185.56 64.0605C185.37 63.8701 185.263 63.6119 185.263 63.3428V42.0278C185.263 41.7586 185.37 41.5004 185.56 41.31C185.75 41.1197 186.009 41.0128 186.278 41.0128C186.547 41.0128 186.805 41.1197 186.995 41.31C187.186 41.5004 187.293 41.7586 187.293 42.0278V63.3428C187.293 63.6119 187.186 63.8701 186.995 64.0605C186.805 64.2508 186.547 64.3578 186.278 64.3578Z" fill="#12189B"/>
<path d="M172.585 64.9058C172.316 64.9058 172.058 64.7989 171.868 64.6086C171.677 64.4182 171.57 64.16 171.57 63.8908V40.1906C171.57 39.9214 171.677 39.6632 171.868 39.4729C172.058 39.2825 172.316 39.1756 172.585 39.1756C172.855 39.1756 173.113 39.2825 173.303 39.4729C173.493 39.6632 173.6 39.9214 173.6 40.1906V63.8908C173.6 64.16 173.493 64.4182 173.303 64.6086C173.113 64.7989 172.855 64.9058 172.585 64.9058Z" fill="#12189B"/>
<path d="M160.649 63.2717C160.38 63.2717 160.122 63.1648 159.931 62.9744C159.741 62.7841 159.634 62.5259 159.634 62.2567V45.0727C159.634 44.8035 159.741 44.5454 159.931 44.355C160.122 44.1647 160.38 44.0577 160.649 44.0577C160.918 44.0577 161.176 44.1647 161.367 44.355C161.557 44.5454 161.664 44.8035 161.664 45.0727V62.2567C161.664 62.5259 161.557 62.7841 161.367 62.9744C161.176 63.1648 160.918 63.2717 160.649 63.2717Z" fill="#12189B"/>
<path d="M194.032 109.688H156.041V118.985H194.032V109.688Z" fill="#12189B"/>
<path d="M194.032 119.99H156.041C155.772 119.99 155.514 119.883 155.323 119.693C155.133 119.502 155.026 119.244 155.026 118.975V109.688C155.026 109.418 155.133 109.16 155.323 108.97C155.514 108.78 155.772 108.673 156.041 108.673H194.032C194.302 108.673 194.56 108.78 194.75 108.97C194.94 109.16 195.047 109.418 195.047 109.688V118.975C195.047 119.244 194.94 119.502 194.75 119.693C194.56 119.883 194.302 119.99 194.032 119.99ZM157.056 117.96H193.017V110.703H157.056V117.96Z" fill="#12189B"/>
<path d="M196.57 212.903V118.975H153.514V212.903" fill="#B6B9F6"/>
<path d="M196.58 213.918C196.311 213.918 196.053 213.811 195.862 213.621C195.672 213.43 195.565 213.172 195.565 212.903V119.99H154.529V212.903C154.529 213.172 154.422 213.43 154.231 213.621C154.041 213.811 153.783 213.918 153.514 213.918C153.244 213.918 152.986 213.811 152.796 213.621C152.605 213.43 152.499 213.172 152.499 212.903V118.975C152.499 118.706 152.605 118.448 152.796 118.257C152.986 118.067 153.244 117.96 153.514 117.96H196.58C196.849 117.96 197.107 118.067 197.298 118.257C197.488 118.448 197.595 118.706 197.595 118.975V212.903C197.595 213.172 197.488 213.43 197.298 213.621C197.107 213.811 196.849 213.918 196.58 213.918Z" fill="#12189B"/>
<path d="M163.268 132.819C164.714 132.819 165.886 131.647 165.886 130.201C165.886 128.755 164.714 127.582 163.268 127.582C161.821 127.582 160.649 128.755 160.649 130.201C160.649 131.647 161.821 132.819 163.268 132.819Z" fill="#12189B"/>
<path d="M124.86 189.101C124.86 189.101 135.792 189.913 140.674 190.735C145.556 191.558 152.854 202.134 163.197 203.22C173.539 204.306 181.923 204.57 184.907 201.86C187.892 199.15 186.806 193.74 186.806 193.74H199.107C206.344 193.74 206.892 185.792 202.152 183.448C202.152 183.448 210.272 182.331 210.973 176.627C211.795 170.161 203.969 169.755 203.969 169.755C205.281 167.984 205.921 165.804 205.776 163.604C205.41 160.164 199.077 157.809 199.077 157.809C199.077 157.809 202.7 155.464 200.163 150.937C197.625 146.41 196.001 147.141 186.775 147.141C177.549 147.141 168.322 146.421 163.43 148.227C158.538 150.034 143.526 156.55 139.364 156.733C135.203 156.916 124.819 156.368 124.819 156.368L124.86 189.101Z" fill="#FFC9B0"/>
<path d="M175.103 205.016C171.089 204.954 167.082 204.689 163.095 204.225C156.569 203.535 151.281 199.302 147.038 195.902C144.429 193.811 142.186 192.014 140.501 191.73C135.721 190.938 124.901 190.126 124.789 190.116C124.532 190.098 124.292 189.983 124.117 189.795C123.942 189.607 123.844 189.359 123.845 189.101V156.357C123.844 156.219 123.872 156.082 123.926 155.954C123.98 155.827 124.06 155.712 124.16 155.616C124.26 155.522 124.378 155.449 124.507 155.402C124.636 155.355 124.774 155.335 124.911 155.342C125.023 155.342 135.294 155.88 139.364 155.708C142.338 155.576 151.788 151.78 158.03 149.273C160.121 148.43 161.918 147.71 163.105 147.243C167.064 145.781 173.621 145.893 180.563 146.025C182.593 146.025 184.704 146.096 186.795 146.096C188.034 146.096 189.13 146.096 190.104 146.096C196.448 146.025 198.58 146.004 201.066 150.44C202.822 153.566 202.081 156.022 200.904 157.484C202.985 158.499 206.497 160.529 206.801 163.493C206.968 165.392 206.573 167.298 205.664 168.974C207.587 169.32 209.348 170.273 210.689 171.694C211.261 172.395 211.676 173.211 211.905 174.087C212.135 174.962 212.173 175.877 212.018 176.769C211.45 181.194 207.197 183.153 204.507 183.965C205.23 184.754 205.749 185.707 206.022 186.741C206.294 187.776 206.311 188.861 206.07 189.903C205.522 192.248 203.401 194.765 199.107 194.765H187.942C188.105 196.673 188.044 200.378 185.567 202.631C183.659 204.357 180.046 205.016 175.103 205.016ZM125.875 188.167C128.646 188.381 136.746 189.051 140.836 189.731C143.039 190.096 145.475 192.055 148.307 194.318C152.367 197.556 157.381 201.586 163.308 202.205C171.53 203.068 181.345 203.727 184.227 201.109C186.745 198.815 185.821 194.004 185.811 193.923C185.782 193.774 185.787 193.621 185.825 193.475C185.863 193.328 185.933 193.192 186.03 193.077C186.128 192.961 186.249 192.868 186.387 192.806C186.525 192.743 186.675 192.712 186.826 192.715H199.128C201.767 192.715 203.634 191.476 204.121 189.416C204.346 188.428 204.236 187.392 203.808 186.474C203.38 185.555 202.658 184.804 201.757 184.341C201.565 184.243 201.409 184.087 201.312 183.894C201.215 183.702 201.182 183.484 201.217 183.272C201.252 183.059 201.353 182.864 201.507 182.713C201.661 182.562 201.858 182.464 202.071 182.433C202.142 182.433 209.399 181.347 210.019 176.485C210.133 175.877 210.115 175.251 209.966 174.65C209.817 174.049 209.541 173.488 209.156 173.003C207.471 170.973 204 170.76 203.959 170.76C203.772 170.75 203.592 170.688 203.438 170.582C203.284 170.475 203.162 170.328 203.087 170.157C203.011 169.986 202.984 169.797 203.009 169.611C203.034 169.426 203.11 169.251 203.228 169.106C204.367 167.54 204.927 165.628 204.812 163.696C204.578 161.412 200.264 159.311 198.772 158.753C198.597 158.686 198.443 158.572 198.328 158.423C198.214 158.275 198.143 158.097 198.123 157.91C198.104 157.725 198.136 157.537 198.217 157.369C198.298 157.201 198.423 157.058 198.58 156.956C198.854 156.763 201.32 154.926 199.331 151.424C197.433 148.034 196.468 148.045 190.196 148.116C189.181 148.116 188.095 148.116 186.856 148.116C184.755 148.116 182.644 148.116 180.594 148.045C173.844 147.923 167.47 147.801 163.877 149.141C162.699 149.567 160.913 150.288 158.802 151.12C152.042 153.84 142.785 157.555 139.456 157.697C136.127 157.839 128.666 157.525 125.885 157.393L125.875 188.167Z" fill="#12189B"/>
<path d="M186.806 194.745H172.332C172.062 194.745 171.804 194.638 171.614 194.447C171.424 194.257 171.317 193.999 171.317 193.73C171.317 193.46 171.424 193.202 171.614 193.012C171.804 192.822 172.062 192.715 172.332 192.715H186.806C187.075 192.715 187.333 192.822 187.523 193.012C187.714 193.202 187.821 193.46 187.821 193.73C187.821 193.999 187.714 194.257 187.523 194.447C187.333 194.638 187.075 194.745 186.806 194.745Z" fill="#12189B"/>
<path d="M202.183 184.453H180.868C180.599 184.453 180.34 184.346 180.15 184.155C179.96 183.965 179.853 183.707 179.853 183.438C179.853 183.168 179.96 182.91 180.15 182.72C180.34 182.529 180.599 182.423 180.868 182.423H202.183C202.452 182.423 202.71 182.529 202.9 182.72C203.091 182.91 203.198 183.168 203.198 183.438C203.198 183.707 203.091 183.965 202.9 184.155C202.71 184.346 202.452 184.453 202.183 184.453Z" fill="#12189B"/>
<path d="M204 170.76H180.34C180.071 170.76 179.813 170.653 179.622 170.463C179.432 170.273 179.325 170.014 179.325 169.745C179.325 169.476 179.432 169.218 179.622 169.027C179.813 168.837 180.071 168.73 180.34 168.73H204.04C204.309 168.73 204.568 168.837 204.758 169.027C204.948 169.218 205.055 169.476 205.055 169.745C205.055 170.014 204.948 170.273 204.758 170.463C204.568 170.653 204.309 170.76 204.04 170.76H204Z" fill="#12189B"/>
<path d="M199.107 158.814H181.923C181.654 158.814 181.396 158.707 181.206 158.516C181.015 158.326 180.908 158.068 180.908 157.799C180.908 157.529 181.015 157.271 181.206 157.081C181.396 156.891 181.654 156.784 181.923 156.784H199.107C199.376 156.784 199.635 156.891 199.825 157.081C200.015 157.271 200.122 157.529 200.122 157.799C200.122 158.068 200.015 158.326 199.825 158.516C199.635 158.707 199.376 158.814 199.107 158.814Z" fill="#12189B"/>
<path d="M134.503 191.192V153.201H125.205V191.192H134.503Z" fill="white"/>
<path d="M134.503 192.207H125.205C124.936 192.207 124.678 192.1 124.487 191.91C124.297 191.72 124.19 191.461 124.19 191.192V153.201C124.19 152.932 124.297 152.673 124.487 152.483C124.678 152.293 124.936 152.186 125.205 152.186H134.503C134.772 152.186 135.03 152.293 135.22 152.483C135.411 152.673 135.518 152.932 135.518 153.201V191.192C135.518 191.461 135.411 191.72 135.22 191.91C135.03 192.1 134.772 192.207 134.503 192.207ZM126.22 190.177H133.488V154.216H126.22V190.177Z" fill="#12189B"/>
<path d="M31.2872 193.73H125.205V150.673H31.2872" fill="#EDEEFD"/>
<path d="M125.205 194.745H31.2872C31.018 194.745 30.7599 194.638 30.5695 194.447C30.3792 194.257 30.2722 193.999 30.2722 193.73C30.2722 193.46 30.3792 193.202 30.5695 193.012C30.7599 192.822 31.018 192.715 31.2872 192.715H124.19V151.688H31.2872C31.018 151.688 30.7599 151.581 30.5695 151.391C30.3792 151.201 30.2722 150.943 30.2722 150.673C30.2722 150.404 30.3792 150.146 30.5695 149.956C30.7599 149.765 31.018 149.658 31.2872 149.658H125.205C125.474 149.658 125.733 149.765 125.923 149.956C126.113 150.146 126.22 150.404 126.22 150.673V193.73C126.22 193.999 126.113 194.257 125.923 194.447C125.733 194.638 125.474 194.745 125.205 194.745Z" fill="#12189B"/>
<path d="M113.989 163.046C115.436 163.046 116.608 161.874 116.608 160.427C116.608 158.981 115.436 157.809 113.989 157.809C112.543 157.809 111.371 158.981 111.371 160.427C111.371 161.874 112.543 163.046 113.989 163.046Z" fill="#12189B"/>
<path d="M91.4361 127.491C91.4361 127.491 92.2481 135.519 93.0601 140.412C93.8721 145.304 104.459 152.592 105.545 162.935C106.631 173.277 106.905 181.661 104.195 184.645C101.485 187.629 96.0746 186.543 96.0746 186.543V198.845C96.0746 206.082 88.1373 206.62 85.7825 201.89C85.7825 201.89 84.666 210.01 78.9719 210.711C72.5063 211.533 72.1003 203.697 72.1003 203.697C70.3299 205.011 68.1493 205.651 65.9494 205.504C62.5086 205.148 60.1538 198.815 60.1538 198.815C60.1538 198.815 57.799 202.428 53.2822 199.901C48.7655 197.373 49.4861 195.739 49.4861 186.513C49.4861 177.287 48.7553 168.06 50.562 163.168C52.3687 158.276 58.885 143.274 59.0677 139.112C59.2504 134.951 58.7125 127.46 58.7125 127.46L91.4361 127.491Z" fill="#FFC9B0"/>
<path d="M78.0178 211.817C76.5648 211.844 75.15 211.351 74.0288 210.426C72.6064 209.09 71.6495 207.332 71.2985 205.412C69.62 206.314 67.716 206.708 65.8175 206.549C62.8841 206.245 60.7932 202.733 59.8087 200.652C58.3369 201.789 55.8908 202.57 52.7646 200.814C48.3189 198.328 48.3493 196.196 48.4204 189.852C48.4204 188.837 48.4204 187.822 48.4204 186.543C48.4204 184.453 48.4204 182.351 48.3392 180.311C48.2174 173.369 48.0956 166.802 49.5674 162.853C50.014 161.645 50.7346 159.808 51.5974 157.778C54.1146 151.526 57.9106 142.086 58.0324 139.102C58.2151 135.042 57.6772 127.643 57.6772 127.572C57.6669 127.434 57.685 127.295 57.7304 127.164C57.7758 127.033 57.8475 126.913 57.9411 126.811C58.0369 126.707 58.1532 126.625 58.2825 126.569C58.4118 126.513 58.5513 126.485 58.6922 126.486H91.4361C91.6886 126.485 91.9325 126.578 92.1202 126.746C92.3079 126.915 92.4259 127.148 92.4511 127.399C92.4511 127.481 93.2732 135.458 94.0751 140.249C94.3491 141.924 96.1558 144.177 98.2366 146.776C101.647 151.029 105.88 156.317 106.57 162.833C107.737 173.998 107.91 182.118 104.946 185.336C102.703 187.812 98.9978 187.873 97.0795 187.711V198.876C97.0795 203.159 94.5724 205.28 92.2176 205.839C91.1753 206.078 90.0904 206.061 89.0562 205.789C88.0219 205.516 87.0692 204.997 86.2799 204.275C85.4781 206.955 83.5191 211.218 79.0836 211.776C78.7297 211.815 78.3736 211.829 78.0178 211.817ZM72.0699 202.682C72.2167 202.683 72.3618 202.714 72.4962 202.773C72.6648 202.851 72.8088 202.974 72.9126 203.127C73.0164 203.281 73.076 203.461 73.0849 203.646C73.0849 203.646 73.3082 207.158 75.3382 208.843C75.8223 209.229 76.3839 209.505 76.9848 209.654C77.5856 209.803 78.2114 209.821 78.8196 209.706C83.6815 209.087 84.7472 201.819 84.7574 201.748C84.7856 201.532 84.8827 201.33 85.0344 201.174C85.1861 201.017 85.3843 200.913 85.5996 200.878C85.8149 200.842 86.0358 200.877 86.2297 200.977C86.4235 201.078 86.5799 201.237 86.6757 201.433C87.138 202.336 87.888 203.059 88.8072 203.487C89.7264 203.916 90.7623 204.025 91.7507 203.798C93.7808 203.311 95.0394 201.454 95.0394 198.815V186.543C95.0403 186.394 95.0745 186.246 95.1395 186.111C95.2044 185.975 95.2985 185.856 95.4149 185.762C95.5308 185.666 95.6665 185.597 95.8122 185.561C95.9578 185.524 96.1099 185.52 96.2574 185.549C96.2574 185.549 101.15 186.472 103.444 183.955C106.062 181.073 105.403 171.268 104.54 163.036C103.91 157.108 99.8809 152.084 96.643 148.034C94.3796 145.213 92.4308 142.777 92.0654 140.574C91.4158 136.687 90.756 130.759 90.5226 128.506H59.7782C59.9204 130.749 60.2045 135.915 60.0624 139.184C59.9203 142.452 56.1953 151.77 53.4649 158.499C52.6326 160.529 51.912 162.356 51.4349 163.574C50.1053 167.167 50.2169 173.541 50.3387 180.291C50.3387 182.321 50.4199 184.453 50.4199 186.564C50.4199 187.802 50.4199 188.908 50.4199 189.893C50.3489 196.196 50.3387 197.17 53.7288 199.028C57.2712 201.058 59.0678 198.551 59.2606 198.267C59.3644 198.11 59.5094 197.986 59.6796 197.907C59.8498 197.828 60.0386 197.798 60.2249 197.82C60.4098 197.842 60.5853 197.914 60.7321 198.028C60.8789 198.143 60.9914 198.295 61.0571 198.47C61.6154 199.962 63.7165 204.265 66.0002 204.509C67.9348 204.63 69.8503 204.066 71.4101 202.915C71.5996 202.773 71.833 202.701 72.0699 202.712V202.682Z" fill="#12189B"/>
<path d="M96.095 187.558C95.8258 187.558 95.5676 187.452 95.3772 187.261C95.1869 187.071 95.08 186.813 95.08 186.543V172.07C95.08 171.8 95.1869 171.542 95.3772 171.352C95.5676 171.161 95.8258 171.055 96.095 171.055C96.3642 171.055 96.6223 171.161 96.8127 171.352C97.003 171.542 97.11 171.8 97.11 172.07V186.543C97.11 186.813 97.003 187.071 96.8127 187.261C96.6223 187.452 96.3642 187.558 96.095 187.558Z" fill="#12189B"/>
<path d="M85.7623 202.936C85.4931 202.936 85.2349 202.829 85.0446 202.638C84.8543 202.448 84.7473 202.19 84.7473 201.921V180.606C84.7473 180.337 84.8543 180.078 85.0446 179.888C85.2349 179.698 85.4931 179.591 85.7623 179.591C86.0315 179.591 86.2897 179.698 86.48 179.888C86.6704 180.078 86.7773 180.337 86.7773 180.606V201.921C86.7773 202.19 86.6704 202.448 86.48 202.638C86.2897 202.829 86.0315 202.936 85.7623 202.936Z" fill="#12189B"/>
<path d="M72.0801 204.742C71.8109 204.742 71.5527 204.635 71.3623 204.445C71.172 204.255 71.0651 203.997 71.0651 203.727V180.027C71.0651 179.758 71.172 179.5 71.3623 179.309C71.5527 179.119 71.8109 179.012 72.0801 179.012C72.3493 179.012 72.6074 179.119 72.7978 179.309C72.9881 179.5 73.0951 179.758 73.0951 180.027V203.727C73.0951 203.997 72.9881 204.255 72.7978 204.445C72.6074 204.635 72.3493 204.742 72.0801 204.742Z" fill="#12189B"/>
<path d="M60.1335 199.86C59.8643 199.86 59.6062 199.753 59.4158 199.563C59.2255 199.373 59.1185 199.114 59.1185 198.845V181.661C59.1185 181.392 59.2255 181.134 59.4158 180.944C59.6062 180.753 59.8643 180.646 60.1335 180.646C60.4027 180.646 60.6609 180.753 60.8512 180.944C61.0416 181.134 61.1485 181.392 61.1485 181.661V198.845C61.1485 199.114 61.0416 199.373 60.8512 199.563C60.6609 199.753 60.4027 199.86 60.1335 199.86Z" fill="#12189B"/>
<path d="M93.527 124.943H55.5355V134.241H93.527V124.943Z" fill="#12189B"/>
<path d="M93.527 135.245H55.495C55.2258 135.245 54.9676 135.138 54.7773 134.948C54.5869 134.758 54.48 134.5 54.48 134.23V124.943C54.48 124.674 54.5869 124.416 54.7773 124.225C54.9676 124.035 55.2258 123.928 55.495 123.928H93.4864C93.7556 123.928 94.0138 124.035 94.2041 124.225C94.3945 124.416 94.5014 124.674 94.5014 124.943V134.23C94.5016 134.493 94.4003 134.745 94.2186 134.934C94.037 135.123 93.7891 135.235 93.527 135.245ZM56.5506 133.215H92.512V125.958H56.51L56.5506 133.215Z" fill="#12189B"/>
</g>
<defs>
<filter id="filter0_d_2213_6932" x="0.272217" y="0" width="266.456" height="263.918" filterUnits="userSpaceOnUse" color-interpolation-filters="sRGB">
<feFlood flood-opacity="0" result="BackgroundImageFix"/>
<feColorMatrix in="SourceAlpha" type="matrix" values="0 0 0 0 0 0 0 0 0 0 0 0 0 0 0 0 0 0 127 0" result="hardAlpha"/>
<feOffset dx="10" dy="10"/>
<feGaussianBlur stdDeviation="20"/>
<feComposite in2="hardAlpha" operator="out"/>
<feColorMatrix type="matrix" values="0 0 0 0 0.779167 0 0 0 0 0.779167 0 0 0 0 0.779167 0 0 0 0.25 0"/>
<feBlend mode="normal" in2="BackgroundImageFix" result="effect1_dropShadow_2213_6932"/>
<feBlend mode="normal" in="SourceGraphic" in2="effect1_dropShadow_2213_6932" result="shape"/>
</filter>
</defs>
</svg>
