<svg width="25" height="22" viewBox="0 0 25 22" fill="none" xmlns="http://www.w3.org/2000/svg">
<g clip-path="url(#clip0_369:477)">
<path d="M18.4753 15.1627L22.8023 18.9913L21.3728 20.2565L17.0468 16.427C15.4372 17.569 13.4351 18.1901 11.3722 18.1875C6.35317 18.1875 2.27979 14.5824 2.27979 10.1404C2.27979 5.69837 6.35317 2.09326 11.3722 2.09326C16.3912 2.09326 20.4646 5.69837 20.4646 10.1404C20.4675 11.9662 19.7657 13.7381 18.4753 15.1627ZM16.4487 14.4992C17.7309 13.3323 18.4469 11.7681 18.444 10.1404C18.444 6.68191 15.2789 3.88151 11.3722 3.88151C7.46446 3.88151 4.30031 6.68191 4.30031 10.1404C4.30031 13.598 7.46446 16.3992 11.3722 16.3992C13.2113 16.4018 14.9787 15.7681 16.2972 14.6334L16.4487 14.4992Z" fill="#5C62EC"/>
</g>
<defs>
<clipPath id="clip0_369:477">
<rect width="24.2464" height="21.459" fill="white" transform="translate(0.259216 0.304688)"/>
</clipPath>
</defs>
</svg>
