<svg width="534" height="30" viewBox="0 0 534 30" fill="none" xmlns="http://www.w3.org/2000/svg">
<path d="M170.962 15.02C170.962 13.66 171.276 12.44 171.902 11.36C172.542 10.28 173.402 9.44 174.482 8.84C175.576 8.22667 176.769 7.92 178.062 7.92C179.542 7.92 180.856 8.28667 182.002 9.02C183.162 9.74 184.002 10.7667 184.522 12.1H181.782C181.422 11.3667 180.922 10.82 180.282 10.46C179.642 10.1 178.902 9.92 178.062 9.92C177.142 9.92 176.322 10.1267 175.602 10.54C174.882 10.9533 174.316 11.5467 173.902 12.32C173.502 13.0933 173.302 13.9933 173.302 15.02C173.302 16.0467 173.502 16.9467 173.902 17.72C174.316 18.4933 174.882 19.0933 175.602 19.52C176.322 19.9333 177.142 20.14 178.062 20.14C178.902 20.14 179.642 19.96 180.282 19.6C180.922 19.24 181.422 18.6933 181.782 17.96H184.522C184.002 19.2933 183.162 20.32 182.002 21.04C180.856 21.76 179.542 22.12 178.062 22.12C176.756 22.12 175.562 21.82 174.482 21.22C173.402 20.6067 172.542 19.76 171.902 18.68C171.276 17.6 170.962 16.38 170.962 15.02ZM189.571 12.58C189.904 12.02 190.344 11.5867 190.891 11.28C191.451 10.96 192.111 10.8 192.871 10.8V13.16H192.291C191.398 13.16 190.718 13.3867 190.251 13.84C189.798 14.2933 189.571 15.08 189.571 16.2V22H187.291V10.98H189.571V12.58ZM205.167 16.22C205.167 16.6333 205.14 17.0067 205.087 17.34H196.667C196.733 18.22 197.06 18.9267 197.647 19.46C198.233 19.9933 198.953 20.26 199.807 20.26C201.033 20.26 201.9 19.7467 202.407 18.72H204.867C204.533 19.7333 203.927 20.5667 203.047 21.22C202.18 21.86 201.1 22.18 199.807 22.18C198.753 22.18 197.807 21.9467 196.967 21.48C196.14 21 195.487 20.3333 195.007 19.48C194.54 18.6133 194.307 17.6133 194.307 16.48C194.307 15.3467 194.533 14.3533 194.987 13.5C195.453 12.6333 196.1 11.9667 196.927 11.5C197.767 11.0333 198.727 10.8 199.807 10.8C200.847 10.8 201.773 11.0267 202.587 11.48C203.4 11.9333 204.033 12.5733 204.487 13.4C204.94 14.2133 205.167 15.1533 205.167 16.22ZM202.787 15.5C202.773 14.66 202.473 13.9867 201.887 13.48C201.3 12.9733 200.573 12.72 199.707 12.72C198.92 12.72 198.247 12.9733 197.687 13.48C197.127 13.9733 196.793 14.6467 196.687 15.5H202.787ZM206.751 16.44C206.751 15.3333 206.977 14.3533 207.431 13.5C207.897 12.6467 208.524 11.9867 209.311 11.52C210.111 11.04 210.991 10.8 211.951 10.8C212.817 10.8 213.571 10.9733 214.211 11.32C214.864 11.6533 215.384 12.0733 215.771 12.58V10.98H218.071V22H215.771V20.36C215.384 20.88 214.857 21.3133 214.191 21.66C213.524 22.0067 212.764 22.18 211.911 22.18C210.964 22.18 210.097 21.94 209.311 21.46C208.524 20.9667 207.897 20.2867 207.431 19.42C206.977 18.54 206.751 17.5467 206.751 16.44ZM215.771 16.48C215.771 15.72 215.611 15.06 215.291 14.5C214.984 13.94 214.577 13.5133 214.071 13.22C213.564 12.9267 213.017 12.78 212.431 12.78C211.844 12.78 211.297 12.9267 210.791 13.22C210.284 13.5 209.871 13.92 209.551 14.48C209.244 15.0267 209.091 15.68 209.091 16.44C209.091 17.2 209.244 17.8667 209.551 18.44C209.871 19.0133 210.284 19.4533 210.791 19.76C211.311 20.0533 211.857 20.2 212.431 20.2C213.017 20.2 213.564 20.0533 214.071 19.76C214.577 19.4667 214.984 19.04 215.291 18.48C215.611 17.9067 215.771 17.24 215.771 16.48ZM223.825 12.84V18.94C223.825 19.3533 223.919 19.6533 224.105 19.84C224.305 20.0133 224.639 20.1 225.105 20.1H226.505V22H224.705C223.679 22 222.892 21.76 222.345 21.28C221.799 20.8 221.525 20.02 221.525 18.94V12.84H220.225V10.98H221.525V8.24H223.825V10.98H226.505V12.84H223.825ZM238.807 16.22C238.807 16.6333 238.78 17.0067 238.727 17.34H230.307C230.373 18.22 230.7 18.9267 231.287 19.46C231.873 19.9933 232.593 20.26 233.447 20.26C234.673 20.26 235.54 19.7467 236.047 18.72H238.507C238.173 19.7333 237.567 20.5667 236.687 21.22C235.82 21.86 234.74 22.18 233.447 22.18C232.393 22.18 231.447 21.9467 230.607 21.48C229.78 21 229.127 20.3333 228.647 19.48C228.18 18.6133 227.947 17.6133 227.947 16.48C227.947 15.3467 228.173 14.3533 228.627 13.5C229.093 12.6333 229.74 11.9667 230.567 11.5C231.407 11.0333 232.367 10.8 233.447 10.8C234.487 10.8 235.413 11.0267 236.227 11.48C237.04 11.9333 237.673 12.5733 238.127 13.4C238.58 14.2133 238.807 15.1533 238.807 16.22ZM236.427 15.5C236.413 14.66 236.113 13.9867 235.527 13.48C234.94 12.9733 234.213 12.72 233.347 12.72C232.56 12.72 231.887 12.9733 231.327 13.48C230.767 13.9733 230.433 14.6467 230.327 15.5H236.427ZM257.866 22H255.586L248.726 11.62V22H246.446V8.08H248.726L255.586 18.44V8.08H257.866V22ZM271.06 16.22C271.06 16.6333 271.033 17.0067 270.98 17.34H262.56C262.626 18.22 262.953 18.9267 263.54 19.46C264.126 19.9933 264.846 20.26 265.7 20.26C266.926 20.26 267.793 19.7467 268.3 18.72H270.76C270.426 19.7333 269.82 20.5667 268.94 21.22C268.073 21.86 266.993 22.18 265.7 22.18C264.646 22.18 263.7 21.9467 262.86 21.48C262.033 21 261.38 20.3333 260.9 19.48C260.433 18.6133 260.2 17.6133 260.2 16.48C260.2 15.3467 260.426 14.3533 260.88 13.5C261.346 12.6333 261.993 11.9667 262.82 11.5C263.66 11.0333 264.62 10.8 265.7 10.8C266.74 10.8 267.666 11.0267 268.48 11.48C269.293 11.9333 269.926 12.5733 270.38 13.4C270.833 14.2133 271.06 15.1533 271.06 16.22ZM268.68 15.5C268.666 14.66 268.366 13.9867 267.78 13.48C267.193 12.9733 266.466 12.72 265.6 12.72C264.813 12.72 264.14 12.9733 263.58 13.48C263.02 13.9733 262.686 14.6467 262.58 15.5H268.68ZM288.204 10.98L284.784 22H282.384L280.164 13.86L277.944 22H275.544L272.104 10.98H274.424L276.724 19.84L279.064 10.98H281.444L283.684 19.8L285.964 10.98H288.204ZM305.023 12.24C305.023 12.9467 304.856 13.6133 304.523 14.24C304.189 14.8667 303.656 15.38 302.923 15.78C302.189 16.1667 301.249 16.36 300.103 16.36H297.583V22H295.303V8.1H300.103C301.169 8.1 302.069 8.28667 302.803 8.66C303.549 9.02 304.103 9.51333 304.463 10.14C304.836 10.7667 305.023 11.4667 305.023 12.24ZM300.103 14.5C300.969 14.5 301.616 14.3067 302.043 13.92C302.469 13.52 302.683 12.96 302.683 12.24C302.683 10.72 301.823 9.96 300.103 9.96H297.583V14.5H300.103ZM309.577 12.58C309.911 12.02 310.351 11.5867 310.897 11.28C311.457 10.96 312.117 10.8 312.877 10.8V13.16H312.297C311.404 13.16 310.724 13.3867 310.257 13.84C309.804 14.2933 309.577 15.08 309.577 16.2V22H307.297V10.98H309.577V12.58ZM319.853 22.18C318.813 22.18 317.873 21.9467 317.033 21.48C316.193 21 315.533 20.3333 315.053 19.48C314.573 18.6133 314.333 17.6133 314.333 16.48C314.333 15.36 314.58 14.3667 315.073 13.5C315.566 12.6333 316.24 11.9667 317.093 11.5C317.946 11.0333 318.9 10.8 319.953 10.8C321.006 10.8 321.96 11.0333 322.813 11.5C323.666 11.9667 324.34 12.6333 324.833 13.5C325.326 14.3667 325.573 15.36 325.573 16.48C325.573 17.6 325.32 18.5933 324.813 19.46C324.306 20.3267 323.613 21 322.733 21.48C321.866 21.9467 320.906 22.18 319.853 22.18ZM319.853 20.2C320.44 20.2 320.986 20.06 321.493 19.78C322.013 19.5 322.433 19.08 322.753 18.52C323.073 17.96 323.233 17.28 323.233 16.48C323.233 15.68 323.08 15.0067 322.773 14.46C322.466 13.9 322.06 13.48 321.553 13.2C321.046 12.92 320.5 12.78 319.913 12.78C319.326 12.78 318.78 12.92 318.273 13.2C317.78 13.48 317.386 13.9 317.093 14.46C316.8 15.0067 316.653 15.68 316.653 16.48C316.653 17.6667 316.953 18.5867 317.553 19.24C318.166 19.88 318.933 20.2 319.853 20.2ZM329.087 9.52C328.674 9.52 328.327 9.38 328.047 9.1C327.767 8.82 327.627 8.47333 327.627 8.06C327.627 7.64667 327.767 7.3 328.047 7.02C328.327 6.74 328.674 6.6 329.087 6.6C329.487 6.6 329.827 6.74 330.107 7.02C330.387 7.3 330.527 7.64667 330.527 8.06C330.527 8.47333 330.387 8.82 330.107 9.1C329.827 9.38 329.487 9.52 329.087 9.52ZM330.207 24.16C330.207 25.24 329.934 26.02 329.387 26.5C328.854 26.9933 328.074 27.24 327.047 27.24H325.867V25.32H326.647C327.114 25.32 327.44 25.2267 327.627 25.04C327.827 24.8667 327.927 24.5733 327.927 24.16V10.98H330.207V24.16ZM343.4 16.22C343.4 16.6333 343.374 17.0067 343.32 17.34H334.9C334.967 18.22 335.294 18.9267 335.88 19.46C336.467 19.9933 337.187 20.26 338.04 20.26C339.267 20.26 340.134 19.7467 340.64 18.72H343.1C342.767 19.7333 342.16 20.5667 341.28 21.22C340.414 21.86 339.334 22.18 338.04 22.18C336.987 22.18 336.04 21.9467 335.2 21.48C334.374 21 333.72 20.3333 333.24 19.48C332.774 18.6133 332.54 17.6133 332.54 16.48C332.54 15.3467 332.767 14.3533 333.22 13.5C333.687 12.6333 334.334 11.9667 335.16 11.5C336 11.0333 336.96 10.8 338.04 10.8C339.08 10.8 340.007 11.0267 340.82 11.48C341.634 11.9333 342.267 12.5733 342.72 13.4C343.174 14.2133 343.4 15.1533 343.4 16.22ZM341.02 15.5C341.007 14.66 340.707 13.9867 340.12 13.48C339.534 12.9733 338.807 12.72 337.94 12.72C337.154 12.72 336.48 12.9733 335.92 13.48C335.36 13.9733 335.027 14.6467 334.92 15.5H341.02ZM344.984 16.48C344.984 15.3467 345.211 14.3533 345.664 13.5C346.131 12.6333 346.771 11.9667 347.584 11.5C348.397 11.0333 349.331 10.8 350.384 10.8C351.717 10.8 352.817 11.12 353.684 11.76C354.564 12.3867 355.157 13.2867 355.464 14.46H353.004C352.804 13.9133 352.484 13.4867 352.044 13.18C351.604 12.8733 351.051 12.72 350.384 12.72C349.451 12.72 348.704 13.0533 348.144 13.72C347.597 14.3733 347.324 15.2933 347.324 16.48C347.324 17.6667 347.597 18.5933 348.144 19.26C348.704 19.9267 349.451 20.26 350.384 20.26C351.704 20.26 352.577 19.68 353.004 18.52H355.464C355.144 19.64 354.544 20.5333 353.664 21.2C352.784 21.8533 351.691 22.18 350.384 22.18C349.331 22.18 348.397 21.9467 347.584 21.48C346.771 21 346.131 20.3333 345.664 19.48C345.211 18.6133 344.984 17.6133 344.984 16.48ZM360.496 12.84V18.94C360.496 19.3533 360.59 19.6533 360.776 19.84C360.976 20.0133 361.31 20.1 361.776 20.1H363.176V22H361.376C360.35 22 359.563 21.76 359.016 21.28C358.47 20.8 358.196 20.02 358.196 18.94V12.84H356.896V10.98H358.196V8.24H360.496V10.98H363.176V12.84H360.496Z" fill="#111827"/>
</svg>
