<svg width="37" height="36" viewBox="0 0 37 36" fill="none" xmlns="http://www.w3.org/2000/svg">
<path d="M6.5 33C6.5 29.8174 7.76428 26.7652 10.0147 24.5147C12.2652 22.2643 15.3174 21 18.5 21C21.6826 21 24.7348 22.2643 26.9853 24.5147C29.2357 26.7652 30.5 29.8174 30.5 33H27.5C27.5 30.6131 26.5518 28.3239 24.864 26.636C23.1761 24.9482 20.8869 24 18.5 24C16.1131 24 13.8239 24.9482 12.136 26.636C10.4482 28.3239 9.5 30.6131 9.5 33H6.5ZM18.5 19.5C13.5275 19.5 9.5 15.4725 9.5 10.5C9.5 5.5275 13.5275 1.5 18.5 1.5C23.4725 1.5 27.5 5.5275 27.5 10.5C27.5 15.4725 23.4725 19.5 18.5 19.5ZM18.5 16.5C21.815 16.5 24.5 13.815 24.5 10.5C24.5 7.185 21.815 4.5 18.5 4.5C15.185 4.5 12.5 7.185 12.5 10.5C12.5 13.815 15.185 16.5 18.5 16.5Z" fill="#6B7280"/>
</svg>
