<svg width="37" height="36" viewBox="0 0 37 36" fill="none" xmlns="http://www.w3.org/2000/svg">
<g clip-path="url(#clip0_560:382)">
<rect width="36" height="36" transform="translate(0.5)" fill="white"/>
<path d="M18.5 16.5C20.4891 16.5 22.3968 17.2902 23.8033 18.6967C25.2098 20.1032 26 22.0109 26 24V33H23V24C23.0001 22.8522 22.5615 21.7477 21.7741 20.9126C20.9866 20.0775 19.9098 19.5748 18.764 19.5075L18.5 19.5C17.3522 19.4999 16.2477 19.9385 15.4126 20.7259C14.5775 21.5134 14.0748 22.5902 14.0075 23.736L14 24V33H11V24C11 22.0109 11.7902 20.1032 13.1967 18.6967C14.6032 17.2902 16.5109 16.5 18.5 16.5ZM8.75 21C9.1685 21 9.575 21.0495 9.965 21.141C9.70854 21.9045 9.55665 22.6992 9.5135 23.5035L9.5 24V24.129C9.32758 24.0673 9.14824 24.027 8.966 24.009L8.75 24C8.19068 24 7.65141 24.2084 7.23737 24.5844C6.82333 24.9605 6.5642 25.4773 6.5105 26.034L6.5 26.25V33H3.5V26.25C3.5 24.8576 4.05312 23.5223 5.03769 22.5377C6.02226 21.5531 7.35761 21 8.75 21V21ZM28.25 21C29.6424 21 30.9777 21.5531 31.9623 22.5377C32.9469 23.5223 33.5 24.8576 33.5 26.25V33H30.5V26.25C30.5 25.6907 30.2916 25.1514 29.9156 24.7374C29.5395 24.3233 29.0227 24.0642 28.466 24.0105L28.25 24C27.9875 24 27.7355 24.045 27.5 24.1275V24C27.5 23.001 27.338 22.041 27.0365 21.144C27.425 21.0495 27.8315 21 28.25 21ZM8.75 12C9.74456 12 10.6984 12.3951 11.4017 13.0983C12.1049 13.8016 12.5 14.7554 12.5 15.75C12.5 16.7446 12.1049 17.6984 11.4017 18.4017C10.6984 19.1049 9.74456 19.5 8.75 19.5C7.75544 19.5 6.80161 19.1049 6.09835 18.4017C5.39509 17.6984 5 16.7446 5 15.75C5 14.7554 5.39509 13.8016 6.09835 13.0983C6.80161 12.3951 7.75544 12 8.75 12V12ZM28.25 12C29.2446 12 30.1984 12.3951 30.9017 13.0983C31.6049 13.8016 32 14.7554 32 15.75C32 16.7446 31.6049 17.6984 30.9017 18.4017C30.1984 19.1049 29.2446 19.5 28.25 19.5C27.2554 19.5 26.3016 19.1049 25.5983 18.4017C24.8951 17.6984 24.5 16.7446 24.5 15.75C24.5 14.7554 24.8951 13.8016 25.5983 13.0983C26.3016 12.3951 27.2554 12 28.25 12V12ZM8.75 15C8.55109 15 8.36032 15.079 8.21967 15.2197C8.07902 15.3603 8 15.5511 8 15.75C8 15.9489 8.07902 16.1397 8.21967 16.2803C8.36032 16.421 8.55109 16.5 8.75 16.5C8.94891 16.5 9.13968 16.421 9.28033 16.2803C9.42098 16.1397 9.5 15.9489 9.5 15.75C9.5 15.5511 9.42098 15.3603 9.28033 15.2197C9.13968 15.079 8.94891 15 8.75 15ZM28.25 15C28.0511 15 27.8603 15.079 27.7197 15.2197C27.579 15.3603 27.5 15.5511 27.5 15.75C27.5 15.9489 27.579 16.1397 27.7197 16.2803C27.8603 16.421 28.0511 16.5 28.25 16.5C28.4489 16.5 28.6397 16.421 28.7803 16.2803C28.921 16.1397 29 15.9489 29 15.75C29 15.5511 28.921 15.3603 28.7803 15.2197C28.6397 15.079 28.4489 15 28.25 15ZM18.5 3C20.0913 3 21.6174 3.63214 22.7426 4.75736C23.8679 5.88258 24.5 7.4087 24.5 9C24.5 10.5913 23.8679 12.1174 22.7426 13.2426C21.6174 14.3679 20.0913 15 18.5 15C16.9087 15 15.3826 14.3679 14.2574 13.2426C13.1321 12.1174 12.5 10.5913 12.5 9C12.5 7.4087 13.1321 5.88258 14.2574 4.75736C15.3826 3.63214 16.9087 3 18.5 3V3ZM18.5 6C17.7044 6 16.9413 6.31607 16.3787 6.87868C15.8161 7.44129 15.5 8.20435 15.5 9C15.5 9.79565 15.8161 10.5587 16.3787 11.1213C16.9413 11.6839 17.7044 12 18.5 12C19.2956 12 20.0587 11.6839 20.6213 11.1213C21.1839 10.5587 21.5 9.79565 21.5 9C21.5 8.20435 21.1839 7.44129 20.6213 6.87868C20.0587 6.31607 19.2956 6 18.5 6V6Z" fill="#5C62EC"/>
</g>
<defs>
<clipPath id="clip0_560:382">
<rect width="36" height="36" fill="white" transform="translate(0.5)"/>
</clipPath>
</defs>
</svg>
