<svg width="33" height="33" viewBox="0 0 33 33" fill="none" xmlns="http://www.w3.org/2000/svg">
<g clip-path="url(#clip0_561:392)">
<rect width="32.1885" height="32.1885" transform="translate(0.0649414 0.663086)" fill="white"/>
<path d="M5.42969 30.1693C5.42969 27.3237 6.56011 24.5946 8.57228 22.5824C10.5845 20.5702 13.3135 19.4398 16.1592 19.4398C19.0048 19.4398 21.7339 20.5702 23.7461 22.5824C25.7582 24.5946 26.8887 27.3237 26.8887 30.1693H24.2063C24.2063 28.0351 23.3585 25.9883 21.8494 24.4791C20.3402 22.97 18.2934 22.1222 16.1592 22.1222C14.0249 22.1222 11.9781 22.97 10.469 24.4791C8.95988 25.9883 8.11206 28.0351 8.11206 30.1693H5.42969ZM16.1592 18.0986C11.7131 18.0986 8.11206 14.4975 8.11206 10.0515C8.11206 5.60548 11.7131 2.00439 16.1592 2.00439C20.6052 2.00439 24.2063 5.60548 24.2063 10.0515C24.2063 14.4975 20.6052 18.0986 16.1592 18.0986ZM16.1592 15.4163C19.1232 15.4163 21.5239 13.0155 21.5239 10.0515C21.5239 7.08749 19.1232 4.68677 16.1592 4.68677C13.1952 4.68677 10.7944 7.08749 10.7944 10.0515C10.7944 13.0155 13.1952 15.4163 16.1592 15.4163Z" fill="#5C62EC"/>
</g>
<defs>
<clipPath id="clip0_561:392">
<rect width="32.1885" height="32.1885" fill="white" transform="translate(0.0649414 0.663086)"/>
</clipPath>
</defs>
</svg>
