<svg width="37" height="37" viewBox="0 0 37 37" fill="none" xmlns="http://www.w3.org/2000/svg">
<g clip-path="url(#clip0_561:387)">
<rect width="36" height="36" transform="translate(0.853149 0.869141)" fill="white"/>
<path d="M18.8531 17.3691C20.8423 17.3691 22.7499 18.1593 24.1564 19.5658C25.563 20.9724 26.3531 22.88 26.3531 24.8691V33.8691H23.3531V24.8691C23.3532 23.7213 22.9147 22.6169 22.1272 21.7817C21.3398 20.9466 20.263 20.444 19.1171 20.3766L18.8531 20.3691C17.7053 20.3691 16.6009 20.8076 15.7658 21.5951C14.9306 22.3825 14.428 23.4593 14.3606 24.6051L14.3531 24.8691V33.8691H11.3531V24.8691C11.3531 22.88 12.1433 20.9724 13.5498 19.5658C14.9564 18.1593 16.864 17.3691 18.8531 17.3691ZM9.10315 21.8691C9.52165 21.8691 9.92815 21.9186 10.3181 22.0101C10.0617 22.7736 9.9098 23.5684 9.86665 24.3726L9.85315 24.8691V24.9981C9.68073 24.9364 9.50139 24.8961 9.31915 24.8781L9.10315 24.8691C8.54382 24.8692 8.00456 25.0775 7.59052 25.4536C7.17648 25.8296 6.91734 26.3464 6.86365 26.9031L6.85315 27.1191V33.8691H3.85315V27.1191C3.85315 25.7268 4.40627 24.3914 5.39084 23.4068C6.3754 22.4223 7.71076 21.8691 9.10315 21.8691V21.8691ZM28.6031 21.8691C29.9955 21.8691 31.3309 22.4223 32.3155 23.4068C33.3 24.3914 33.8531 25.7268 33.8531 27.1191V33.8691H30.8531V27.1191C30.8531 26.5598 30.6448 26.0206 30.2687 25.6065C29.8927 25.1925 29.3759 24.9333 28.8191 24.8796L28.6031 24.8691C28.3406 24.8691 28.0886 24.9141 27.8531 24.9966V24.8691C27.8531 23.8701 27.6911 22.9101 27.3896 22.0131C27.7781 21.9186 28.1846 21.8691 28.6031 21.8691ZM9.10315 12.8691C10.0977 12.8691 11.0515 13.2642 11.7548 13.9675C12.4581 14.6708 12.8531 15.6246 12.8531 16.6191C12.8531 17.6137 12.4581 18.5675 11.7548 19.2708C11.0515 19.9741 10.0977 20.3691 9.10315 20.3691C8.10859 20.3691 7.15476 19.9741 6.4515 19.2708C5.74824 18.5675 5.35315 17.6137 5.35315 16.6191C5.35315 15.6246 5.74824 14.6708 6.4515 13.9675C7.15476 13.2642 8.10859 12.8691 9.10315 12.8691V12.8691ZM28.6031 12.8691C29.5977 12.8691 30.5515 13.2642 31.2548 13.9675C31.9581 14.6708 32.3531 15.6246 32.3531 16.6191C32.3531 17.6137 31.9581 18.5675 31.2548 19.2708C30.5515 19.9741 29.5977 20.3691 28.6031 20.3691C27.6086 20.3691 26.6548 19.9741 25.9515 19.2708C25.2482 18.5675 24.8531 17.6137 24.8531 16.6191C24.8531 15.6246 25.2482 14.6708 25.9515 13.9675C26.6548 13.2642 27.6086 12.8691 28.6031 12.8691V12.8691ZM9.10315 15.8691C8.90424 15.8691 8.71347 15.9482 8.57282 16.0888C8.43217 16.2295 8.35315 16.4202 8.35315 16.6191C8.35315 16.8181 8.43217 17.0088 8.57282 17.1495C8.71347 17.2901 8.90424 17.3691 9.10315 17.3691C9.30206 17.3691 9.49283 17.2901 9.63348 17.1495C9.77413 17.0088 9.85315 16.8181 9.85315 16.6191C9.85315 16.4202 9.77413 16.2295 9.63348 16.0888C9.49283 15.9482 9.30206 15.8691 9.10315 15.8691ZM28.6031 15.8691C28.4042 15.8691 28.2135 15.9482 28.0728 16.0888C27.9322 16.2295 27.8531 16.4202 27.8531 16.6191C27.8531 16.8181 27.9322 17.0088 28.0728 17.1495C28.2135 17.2901 28.4042 17.3691 28.6031 17.3691C28.8021 17.3691 28.9928 17.2901 29.1335 17.1495C29.2741 17.0088 29.3531 16.8181 29.3531 16.6191C29.3531 16.4202 29.2741 16.2295 29.1335 16.0888C28.9928 15.9482 28.8021 15.8691 28.6031 15.8691ZM18.8531 3.86914C20.4444 3.86914 21.9706 4.50128 23.0958 5.6265C24.221 6.75172 24.8531 8.27784 24.8531 9.86914C24.8531 11.4604 24.221 12.9866 23.0958 14.1118C21.9706 15.237 20.4444 15.8691 18.8531 15.8691C17.2618 15.8691 15.7357 15.237 14.6105 14.1118C13.4853 12.9866 12.8531 11.4604 12.8531 9.86914C12.8531 8.27784 13.4853 6.75172 14.6105 5.6265C15.7357 4.50128 17.2618 3.86914 18.8531 3.86914V3.86914ZM18.8531 6.86914C18.0575 6.86914 17.2944 7.18521 16.7318 7.74782C16.1692 8.31043 15.8531 9.07349 15.8531 9.86914C15.8531 10.6648 16.1692 11.4279 16.7318 11.9905C17.2944 12.5531 18.0575 12.8691 18.8531 12.8691C19.6488 12.8691 20.4119 12.5531 20.9745 11.9905C21.5371 11.4279 21.8531 10.6648 21.8531 9.86914C21.8531 9.07349 21.5371 8.31043 20.9745 7.74782C20.4119 7.18521 19.6488 6.86914 18.8531 6.86914V6.86914Z" fill="#6B7280"/>
</g>
<defs>
<clipPath id="clip0_561:387">
<rect width="36" height="36" fill="white" transform="translate(0.853149 0.869141)"/>
</clipPath>
</defs>
</svg>
