<svg width="268" height="264" viewBox="0 0 268 264" fill="none" xmlns="http://www.w3.org/2000/svg">
<g filter="url(#filter0_d_699_2137)">
<path d="M96.5544 31.0151V124.943H53.498V31.0151" fill="#5C62EC"/>
<path d="M96.5949 125.958H53.498C53.2288 125.958 52.9707 125.851 52.7803 125.661C52.59 125.47 52.483 125.212 52.483 124.943V31.015C52.483 30.7458 52.59 30.4876 52.7803 30.2973C52.9707 30.1069 53.2288 30 53.498 30C53.7672 30 54.0254 30.1069 54.2157 30.2973C54.4061 30.4876 54.513 30.7458 54.513 31.015V123.928H95.5799V31.015C95.5799 30.7458 95.6869 30.4876 95.8772 30.2973C96.0676 30.1069 96.3257 30 96.5949 30C96.8641 30 97.1223 30.1069 97.3127 30.2973C97.503 30.4876 97.6099 30.7458 97.6099 31.015V124.943C97.6099 125.212 97.503 125.47 97.3127 125.661C97.1223 125.851 96.8641 125.958 96.5949 125.958Z" fill="#12189B"/>
<path d="M63.2624 116.336C64.7086 116.336 65.8811 115.164 65.8811 113.717C65.8811 112.271 64.7086 111.099 63.2624 111.099C61.8161 111.099 60.6437 112.271 60.6437 113.717C60.6437 115.164 61.8161 116.336 63.2624 116.336Z" fill="#12189B"/>
<path d="M122.64 88.4638C122.64 88.4638 111.708 89.286 106.826 90.098C101.944 90.91 94.6462 101.496 84.3034 102.582C73.9605 103.669 65.5766 103.932 62.5925 101.222C59.6084 98.5123 60.6945 93.1024 60.6945 93.1024H48.3927C41.1557 93.1024 40.6076 85.1651 45.3477 82.8103C45.3477 82.8103 37.2277 81.6938 36.5273 75.9895C35.7052 69.5239 43.5308 69.1179 43.5308 69.1179C42.2192 67.3463 41.579 65.1666 41.7241 62.967C42.0895 59.5262 48.4231 57.1815 48.4231 57.1815C48.4231 57.1815 44.7996 54.8267 47.3371 50.2998C49.8746 45.7729 51.4986 46.5037 60.7249 46.5037C69.9513 46.5037 79.1776 45.7831 84.0699 47.5898C88.9622 49.3965 103.974 55.9128 108.136 56.0955C112.297 56.2782 122.681 55.7301 122.681 55.7301L122.64 88.4638Z" fill="#FFC9B0"/>
<path d="M72.3973 104.379C67.4543 104.379 63.8409 103.73 61.9124 101.974C59.4358 99.7203 59.3749 96.0156 59.5373 94.1074H48.3723C44.0788 94.1074 41.9575 91.5902 41.4094 89.2455C41.169 88.2032 41.1858 87.1181 41.4581 86.0837C41.7304 85.0493 42.2501 84.0967 42.9725 83.3078C40.2929 82.5059 36.0299 80.547 35.4615 76.1114C35.3043 75.2197 35.3417 74.3045 35.5712 73.4285C35.8007 72.5526 36.2169 71.7366 36.7911 71.0364C38.1192 69.6191 39.8717 68.6716 41.7849 68.3365C40.8786 66.6598 40.4834 64.7544 40.6481 62.8555C40.9526 59.9222 44.4645 57.7805 46.5453 56.8366C45.3983 55.375 44.6269 52.9187 46.3727 49.8026C48.8696 45.3569 51.0011 45.3772 57.3449 45.4584H60.6538C62.7447 45.4584 64.8356 45.4584 66.8859 45.3874C73.8285 45.2656 80.3955 45.1438 84.3439 46.6054C85.5416 47.052 87.3381 47.7726 89.4189 48.6354C95.6611 51.1424 105.111 54.9385 108.085 55.0705C112.145 55.243 122.427 54.7152 122.528 54.7051C122.668 54.6975 122.807 54.7188 122.938 54.7677C123.069 54.8166 123.189 54.892 123.289 54.9893C123.388 55.0836 123.467 55.197 123.521 55.3226C123.575 55.4482 123.604 55.5834 123.604 55.7201V88.464C123.605 88.7213 123.508 88.9693 123.332 89.1577C123.157 89.3461 122.917 89.461 122.66 89.479C122.548 89.479 111.729 90.3011 106.948 91.103C105.263 91.377 103.02 93.1837 100.411 95.2645C96.1686 98.6647 90.8805 102.907 84.354 103.587C80.3842 104.051 76.3936 104.315 72.3973 104.379ZM55.1423 47.4681C50.7981 47.4681 49.844 47.8437 48.1997 50.7872C46.1697 54.3397 48.6768 56.1261 48.961 56.3189C49.1258 56.4266 49.2558 56.5798 49.3351 56.7601C49.4144 56.9403 49.4396 57.1397 49.4076 57.3339C49.3861 57.5189 49.3141 57.6944 49.1995 57.8412C49.0849 57.988 48.9322 58.1004 48.758 58.1662C47.2659 58.7245 42.9522 60.8255 42.668 63.1194C42.5464 65.054 43.1107 66.9696 44.2615 68.5294C44.3772 68.6753 44.4506 68.8502 44.4735 69.035C44.4965 69.2198 44.4682 69.4074 44.3917 69.5771C44.3152 69.7469 44.1934 69.8924 44.0398 69.9976C43.8861 70.1028 43.7065 70.1637 43.5206 70.1737C43.5206 70.1737 40.0087 70.397 38.3238 72.4168C37.9384 72.9032 37.6619 73.4665 37.5131 74.0689C37.3643 74.6713 37.3465 75.2986 37.461 75.9084C38.0802 80.7804 45.3374 81.836 45.4085 81.8462C45.6234 81.8759 45.8232 81.9738 45.9785 82.1254C46.1338 82.277 46.2364 82.4744 46.2712 82.6886C46.2937 82.8935 46.2533 83.1003 46.1554 83.2816C46.0575 83.4629 45.9067 83.6101 45.7231 83.7036C44.8216 84.1672 44.1 84.9175 43.6718 85.8363C43.2437 86.7551 43.1333 87.7902 43.3582 88.7786C43.8454 90.8086 45.713 92.0774 48.352 92.0774H60.6538C60.8049 92.0746 60.9548 92.1057 61.0925 92.1683C61.2301 92.2309 61.3521 92.3235 61.4493 92.4392C61.5466 92.555 61.6168 92.691 61.6548 92.8374C61.6927 92.9838 61.6975 93.1368 61.6688 93.2852C61.6688 93.2852 60.735 98.1877 63.2522 100.471C66.1348 103.09 75.9498 102.441 84.1713 101.568C90.0989 100.948 95.1333 96.9189 99.173 93.6811C102.005 91.4176 104.441 89.4587 106.643 89.0933C110.703 88.4132 118.823 87.7433 121.605 87.5302V56.7858C118.834 56.9178 111.455 57.2426 108.034 57.1005C104.613 56.9584 95.448 53.2333 88.6881 50.5131C86.6581 49.6808 84.8311 48.9703 83.6131 48.4831C80.02 47.1535 73.6458 47.2651 66.896 47.3869C64.866 47.3869 62.7345 47.458 60.6335 47.458H57.2941L55.1423 47.4681Z" fill="#12189B"/>
<path d="M75.1683 94.1071H60.6944C60.4252 94.1071 60.1671 94.0002 59.9767 93.8099C59.7864 93.6195 59.6794 93.3613 59.6794 93.0921C59.6794 92.823 59.7864 92.5648 59.9767 92.3744C60.1671 92.1841 60.4252 92.0771 60.6944 92.0771H75.1683C75.4375 92.0771 75.6957 92.1841 75.8861 92.3744C76.0764 92.5648 76.1833 92.823 76.1833 93.0921C76.1833 93.3613 76.0764 93.6195 75.8861 93.8099C75.6957 94.0002 75.4375 94.1071 75.1683 94.1071Z" fill="#12189B"/>
<path d="M66.6626 83.8152H45.3476C45.0784 83.8152 44.8203 83.7082 44.6299 83.5179C44.4396 83.3275 44.3326 83.0694 44.3326 82.8002C44.3326 82.531 44.4396 82.2728 44.6299 82.0824C44.8203 81.8921 45.0784 81.7852 45.3476 81.7852H66.6626C66.9318 81.7852 67.19 81.8921 67.3803 82.0824C67.5707 82.2728 67.6776 82.531 67.6776 82.8002C67.6776 83.0694 67.5707 83.3275 67.3803 83.5179C67.19 83.7082 66.9318 83.8152 66.6626 83.8152Z" fill="#12189B"/>
<path d="M67.16 70.1228H43.5004C43.2312 70.1228 42.973 70.0158 42.7826 69.8255C42.5923 69.6351 42.4854 69.377 42.4854 69.1078C42.4854 68.8386 42.5923 68.5804 42.7826 68.3901C42.973 68.1997 43.2312 68.0928 43.5004 68.0928H67.16C67.4292 68.0928 67.6874 68.1997 67.8777 68.3901C68.0681 68.5804 68.175 68.8386 68.175 69.1078C68.175 69.377 68.0681 69.6351 67.8777 69.8255C67.6874 70.0158 67.4292 70.1228 67.16 70.1228Z" fill="#12189B"/>
<path d="M65.5765 58.1867H48.3926C48.1234 58.1867 47.8652 58.0798 47.6748 57.8895C47.4845 57.6991 47.3776 57.4409 47.3776 57.1717C47.3776 56.9025 47.4845 56.6444 47.6748 56.454C47.8652 56.2637 48.1234 56.1567 48.3926 56.1567H65.5765C65.8457 56.1567 66.1039 56.2637 66.2942 56.454C66.4846 56.6444 66.5915 56.9025 66.5915 57.1717C66.5915 57.4409 66.4846 57.6991 66.2942 57.8895C66.1039 58.0798 65.8457 58.1867 65.5765 58.1867Z" fill="#12189B"/>
<path d="M122.295 90.5652V52.5737H112.997V90.5652H122.295Z" fill="white"/>
<path d="M122.295 91.5698H112.997C112.728 91.5698 112.47 91.4629 112.28 91.2725C112.089 91.0822 111.982 90.824 111.982 90.5548V52.5633C111.982 52.2941 112.089 52.036 112.28 51.8456C112.47 51.6553 112.728 51.5483 112.997 51.5483H122.295C122.564 51.5483 122.822 51.6553 123.013 51.8456C123.203 52.036 123.31 52.2941 123.31 52.5633V90.5548C123.31 90.824 123.203 91.0822 123.013 91.2725C122.822 91.4629 122.564 91.5698 122.295 91.5698ZM114.012 89.5398H121.28V53.5783H114.012V89.5398Z" fill="#12189B"/>
<path d="M216.213 93.0924H122.295V50.0361H216.213" fill="#EDEEFD"/>
<path d="M216.213 94.1073H122.295C122.026 94.1073 121.767 94.0004 121.577 93.81C121.387 93.6197 121.28 93.3615 121.28 93.0923V50.036C121.28 49.7668 121.387 49.5086 121.577 49.3183C121.767 49.1279 122.026 49.021 122.295 49.021H216.213C216.482 49.021 216.74 49.1279 216.93 49.3183C217.121 49.5086 217.228 49.7668 217.228 50.036C217.228 50.3052 217.121 50.5634 216.93 50.7537C216.74 50.9441 216.482 51.051 216.213 51.051H123.31V92.0773H216.213C216.482 92.0773 216.74 92.1842 216.93 92.3746C217.121 92.5649 217.228 92.8231 217.228 93.0923C217.228 93.3615 217.121 93.6197 216.93 93.81C216.74 94.0004 216.482 94.1073 216.213 94.1073Z" fill="#12189B"/>
<path d="M133.511 62.4088C134.957 62.4088 136.129 61.2364 136.129 59.7901C136.129 58.3438 134.957 57.1714 133.511 57.1714C132.064 57.1714 130.892 58.3438 130.892 59.7901C130.892 61.2364 132.064 62.4088 133.511 62.4088Z" fill="#12189B"/>
<path d="M192.441 119.32C192.441 119.32 193.264 108.399 194.076 103.506C194.888 98.614 205.474 91.3263 206.56 80.9835C207.646 70.6406 207.91 62.2567 205.2 59.2726C202.49 56.2885 197.08 57.3746 197.08 57.3746V45.0728C197.08 37.8358 189.143 37.2979 186.788 42.0278C186.788 42.0278 185.671 33.9078 179.967 33.2074C173.501 32.3853 173.095 40.2211 173.095 40.2211C171.326 38.9046 169.145 38.2639 166.945 38.4144C163.504 38.7696 161.159 45.1032 161.159 45.1032C161.159 45.1032 158.804 41.4898 154.277 44.0172C149.75 46.5445 150.481 48.1787 150.481 57.405C150.481 66.6314 149.761 75.8577 151.567 80.75C153.374 85.6423 159.89 100.644 160.073 104.806C160.256 108.967 159.708 119.35 159.708 119.35L192.441 119.32Z" fill="#FFC9B0"/>
<path d="M192.441 120.335H159.698C159.561 120.335 159.426 120.306 159.3 120.252C159.174 120.198 159.061 120.119 158.967 120.02C158.871 119.921 158.796 119.803 158.747 119.674C158.698 119.545 158.676 119.407 158.683 119.269C158.683 119.168 159.22 108.886 159.048 104.826C158.916 101.842 155.12 92.3922 152.603 86.1398C151.77 84.1098 151.05 82.2625 150.573 81.0648C149.111 77.1164 149.223 70.5494 149.355 63.6068C149.355 61.5768 149.426 59.4656 149.426 57.3747C149.426 56.1465 149.426 55.0503 149.426 54.0658C149.345 47.722 149.324 45.5905 153.76 43.1038C156.886 41.3478 159.342 42.0888 160.804 43.2662C161.819 41.2362 163.849 37.6735 166.823 37.369C168.722 37.2043 170.627 37.5995 172.304 38.5058C172.643 36.5838 173.598 34.824 175.024 33.4917C175.726 32.9216 176.543 32.5087 177.418 32.2811C178.294 32.0535 179.208 32.0163 180.099 32.1722C184.524 32.7305 186.494 36.9935 187.295 39.6731C188.084 38.9507 189.037 38.431 190.071 38.1587C191.106 37.8864 192.191 37.8696 193.233 38.11C195.578 38.6682 198.095 40.7896 198.095 45.0729V56.2379C200.003 56.0856 203.708 56.1364 205.961 58.613C208.925 61.8711 208.752 69.9607 207.575 81.1155C206.895 87.6318 202.652 92.92 199.252 97.1728C197.161 99.7712 195.365 102.024 195.08 103.699C194.289 108.48 193.477 119.31 193.467 119.411C193.444 119.666 193.325 119.903 193.135 120.074C192.945 120.246 192.697 120.339 192.441 120.335V120.335ZM160.763 118.305H191.508C191.721 115.534 192.391 107.434 193.071 103.344C193.436 101.141 195.395 98.7055 197.659 95.8736C200.896 91.8136 204.926 86.8097 205.545 80.8821C206.418 72.6504 207.068 62.8455 204.449 59.9629C202.155 57.4356 197.344 58.3592 197.263 58.3694C197.114 58.3981 196.961 58.3933 196.815 58.3554C196.669 58.3174 196.532 58.2472 196.417 58.1499C196.301 58.0527 196.208 57.9307 196.146 57.7931C196.083 57.6554 196.052 57.5055 196.055 57.3544V45.0729C196.055 42.4339 194.817 40.5764 192.756 40.0892C191.768 39.8626 190.732 39.9721 189.813 40.4004C188.893 40.8288 188.143 41.5515 187.681 42.4542C187.585 42.6468 187.429 42.8038 187.238 42.9023C187.046 43.0008 186.828 43.0358 186.615 43.0023C186.401 42.9674 186.204 42.8648 186.052 42.7095C185.9 42.5543 185.803 42.3545 185.773 42.1395C185.773 42.0685 184.687 34.8011 179.825 34.1819C179.217 34.0682 178.591 34.0864 177.991 34.2353C177.39 34.3841 176.828 34.6601 176.344 35.0447C174.314 36.7296 174.1 40.211 174.1 40.2415C174.091 40.428 174.029 40.6081 173.924 40.7622C173.818 40.9162 173.672 41.038 173.502 41.1144C173.336 41.1843 173.155 41.2089 172.976 41.1857C172.798 41.1625 172.629 41.0924 172.487 40.9824C170.924 39.8378 169.01 39.2743 167.077 39.3889C164.783 39.6325 162.682 43.9361 162.123 45.4281C162.058 45.6032 161.945 45.7567 161.797 45.8716C161.65 45.9866 161.473 46.0586 161.287 46.0796C161.101 46.1006 160.913 46.0698 160.744 45.9907C160.574 45.9115 160.43 45.7871 160.327 45.6311C160.134 45.3469 158.297 42.8906 154.795 44.8699C151.405 46.7679 151.415 47.7423 151.496 54.0049C151.496 55.0199 151.496 56.0958 151.496 57.3341C151.496 59.4453 151.496 61.5463 151.425 63.6068C151.303 70.3565 151.192 76.7307 152.522 80.3238C152.948 81.4911 153.668 83.2775 154.501 85.3379C157.221 92.108 160.936 101.365 161.088 104.694C161.24 108.023 160.895 115.534 160.763 118.305Z" fill="#12189B"/>
<path d="M197.08 72.8633C196.811 72.8633 196.553 72.7563 196.362 72.566C196.172 72.3756 196.065 72.1175 196.065 71.8483V57.3744C196.065 57.1052 196.172 56.847 196.362 56.6567C196.553 56.4663 196.811 56.3594 197.08 56.3594C197.349 56.3594 197.607 56.4663 197.798 56.6567C197.988 56.847 198.095 57.1052 198.095 57.3744V71.8483C198.095 72.1175 197.988 72.3756 197.798 72.566C197.607 72.7563 197.349 72.8633 197.08 72.8633Z" fill="#12189B"/>
<path d="M186.778 64.3577C186.509 64.3577 186.25 64.2508 186.06 64.0604C185.87 63.8701 185.763 63.6119 185.763 63.3427V42.0277C185.763 41.7585 185.87 41.5003 186.06 41.31C186.25 41.1196 186.509 41.0127 186.778 41.0127C187.047 41.0127 187.305 41.1196 187.495 41.31C187.686 41.5003 187.793 41.7585 187.793 42.0277V63.3427C187.793 63.6119 187.686 63.8701 187.495 64.0604C187.305 64.2508 187.047 64.3577 186.778 64.3577Z" fill="#12189B"/>
<path d="M173.085 64.906C172.816 64.906 172.558 64.7991 172.368 64.6087C172.177 64.4184 172.07 64.1602 172.07 63.891V40.1908C172.07 39.9216 172.177 39.6634 172.368 39.4731C172.558 39.2827 172.816 39.1758 173.085 39.1758C173.355 39.1758 173.613 39.2827 173.803 39.4731C173.993 39.6634 174.1 39.9216 174.1 40.1908V63.891C174.1 64.1602 173.993 64.4184 173.803 64.6087C173.613 64.7991 173.355 64.906 173.085 64.906Z" fill="#12189B"/>
<path d="M161.149 63.2716C160.88 63.2716 160.622 63.1646 160.431 62.9743C160.241 62.7839 160.134 62.5258 160.134 62.2566V45.0726C160.134 44.8034 160.241 44.5453 160.431 44.3549C160.622 44.1646 160.88 44.0576 161.149 44.0576C161.418 44.0576 161.676 44.1646 161.867 44.3549C162.057 44.5453 162.164 44.8034 162.164 45.0726V62.2566C162.164 62.5258 162.057 62.7839 161.867 62.9743C161.676 63.1646 161.418 63.2716 161.149 63.2716Z" fill="#12189B"/>
<path d="M194.532 109.688H156.541V118.985H194.532V109.688Z" fill="#12189B"/>
<path d="M194.532 119.99H156.541C156.272 119.99 156.014 119.883 155.823 119.693C155.633 119.502 155.526 119.244 155.526 118.975V109.688C155.526 109.419 155.633 109.16 155.823 108.97C156.014 108.78 156.272 108.673 156.541 108.673H194.532C194.802 108.673 195.06 108.78 195.25 108.97C195.44 109.16 195.547 109.419 195.547 109.688V118.975C195.547 119.244 195.44 119.502 195.25 119.693C195.06 119.883 194.802 119.99 194.532 119.99ZM157.556 117.96H193.517V110.703H157.556V117.96Z" fill="#12189B"/>
<path d="M197.07 212.903V118.975H154.014V212.903" fill="#B6B9F6"/>
<path d="M197.08 213.918C196.811 213.918 196.553 213.811 196.362 213.621C196.172 213.43 196.065 213.172 196.065 212.903V119.99H155.029V212.903C155.029 213.172 154.922 213.43 154.731 213.621C154.541 213.811 154.283 213.918 154.014 213.918C153.744 213.918 153.486 213.811 153.296 213.621C153.105 213.43 152.999 213.172 152.999 212.903V118.975C152.999 118.706 153.105 118.448 153.296 118.257C153.486 118.067 153.744 117.96 154.014 117.96H197.08C197.349 117.96 197.607 118.067 197.798 118.257C197.988 118.448 198.095 118.706 198.095 118.975V212.903C198.095 213.172 197.988 213.43 197.798 213.621C197.607 213.811 197.349 213.918 197.08 213.918Z" fill="#12189B"/>
<path d="M163.768 132.819C165.214 132.819 166.386 131.647 166.386 130.201C166.386 128.754 165.214 127.582 163.768 127.582C162.321 127.582 161.149 128.754 161.149 130.201C161.149 131.647 162.321 132.819 163.768 132.819Z" fill="#12189B"/>
<path d="M125.36 189.101C125.36 189.101 136.292 189.913 141.174 190.735C146.056 191.557 153.354 202.134 163.697 203.22C174.039 204.306 182.423 204.57 185.407 201.86C188.392 199.15 187.305 193.74 187.305 193.74H199.607C206.844 193.74 207.392 185.792 202.652 183.447C202.652 183.447 210.772 182.331 211.473 176.627C212.295 170.161 204.469 169.755 204.469 169.755C205.781 167.983 206.421 165.804 206.276 163.604C205.91 160.163 199.577 157.809 199.577 157.809C199.577 157.809 203.2 155.464 200.663 150.937C198.125 146.41 196.501 147.141 187.275 147.141C178.049 147.141 168.822 146.42 163.93 148.227C159.038 150.034 144.026 156.55 139.864 156.733C135.703 156.915 125.319 156.367 125.319 156.367L125.36 189.101Z" fill="#FFC9B0"/>
<path d="M175.603 205.016C171.589 204.954 167.582 204.689 163.595 204.225C157.069 203.535 151.781 199.302 147.538 195.902C144.929 193.811 142.686 192.014 141.001 191.73C136.221 190.938 125.401 190.126 125.289 190.116C125.032 190.098 124.792 189.983 124.617 189.795C124.442 189.606 124.344 189.359 124.345 189.101V156.357C124.344 156.219 124.372 156.082 124.426 155.954C124.48 155.827 124.56 155.712 124.66 155.616C124.76 155.522 124.878 155.449 125.007 155.402C125.136 155.355 125.274 155.335 125.411 155.342C125.523 155.342 135.794 155.88 139.864 155.708C142.838 155.576 152.288 151.78 158.53 149.273C160.621 148.43 162.418 147.71 163.605 147.243C167.564 145.781 174.121 145.893 181.063 146.025C183.093 146.025 185.205 146.096 187.295 146.096C188.534 146.096 189.63 146.096 190.604 146.096C196.948 146.025 199.08 146.004 201.566 150.44C203.322 153.566 202.581 156.022 201.404 157.484C203.485 158.499 206.997 160.529 207.301 163.493C207.468 165.392 207.073 167.298 206.164 168.974C208.087 169.32 209.848 170.273 211.189 171.694C211.761 172.395 212.176 173.211 212.405 174.087C212.635 174.962 212.673 175.877 212.518 176.769C211.95 181.194 207.697 183.153 205.007 183.965C205.73 184.754 206.249 185.707 206.522 186.741C206.794 187.776 206.811 188.861 206.57 189.903C206.022 192.248 203.901 194.765 199.607 194.765H188.442C188.605 196.673 188.544 200.378 186.067 202.631C184.159 204.357 180.546 205.016 175.603 205.016ZM126.375 188.167C129.146 188.381 137.246 189.05 141.336 189.731C143.539 190.096 145.975 192.055 148.807 194.318C152.867 197.556 157.881 201.586 163.808 202.205C172.03 203.068 181.845 203.727 184.727 201.109C187.245 198.815 186.321 194.004 186.311 193.922C186.282 193.774 186.287 193.621 186.325 193.475C186.363 193.328 186.433 193.192 186.53 193.076C186.628 192.961 186.749 192.868 186.887 192.806C187.025 192.743 187.175 192.712 187.326 192.715H199.628C202.267 192.715 204.134 191.476 204.621 189.416C204.846 188.427 204.736 187.392 204.308 186.473C203.88 185.555 203.158 184.804 202.257 184.341C202.065 184.243 201.909 184.087 201.812 183.894C201.715 183.702 201.682 183.484 201.717 183.272C201.752 183.059 201.853 182.864 202.007 182.713C202.161 182.562 202.358 182.464 202.571 182.433C202.642 182.433 209.899 181.347 210.519 176.485C210.633 175.877 210.615 175.251 210.466 174.65C210.317 174.049 210.041 173.488 209.656 173.003C207.971 170.973 204.5 170.76 204.459 170.76C204.272 170.75 204.092 170.688 203.938 170.581C203.784 170.475 203.662 170.328 203.587 170.157C203.511 169.986 203.484 169.797 203.509 169.611C203.534 169.426 203.61 169.251 203.728 169.106C204.867 167.54 205.427 165.628 205.312 163.696C205.078 161.412 200.764 159.311 199.272 158.753C199.097 158.686 198.943 158.572 198.828 158.423C198.714 158.275 198.643 158.097 198.623 157.91C198.604 157.725 198.636 157.537 198.717 157.369C198.798 157.201 198.923 157.058 199.08 156.956C199.354 156.763 201.82 154.926 199.831 151.424C197.933 148.034 196.968 148.044 190.696 148.116C189.681 148.116 188.595 148.116 187.356 148.116C185.255 148.116 183.144 148.116 181.094 148.044C174.344 147.923 167.97 147.801 164.377 149.141C163.199 149.567 161.413 150.288 159.302 151.12C152.542 153.84 143.285 157.555 139.956 157.697C136.627 157.839 129.166 157.525 126.385 157.393L126.375 188.167Z" fill="#12189B"/>
<path d="M187.306 194.745H172.832C172.562 194.745 172.304 194.638 172.114 194.448C171.924 194.257 171.817 193.999 171.817 193.73C171.817 193.461 171.924 193.202 172.114 193.012C172.304 192.822 172.562 192.715 172.832 192.715H187.306C187.575 192.715 187.833 192.822 188.023 193.012C188.214 193.202 188.321 193.461 188.321 193.73C188.321 193.999 188.214 194.257 188.023 194.448C187.833 194.638 187.575 194.745 187.306 194.745Z" fill="#12189B"/>
<path d="M202.683 184.452H181.368C181.099 184.452 180.84 184.345 180.65 184.155C180.46 183.965 180.353 183.707 180.353 183.437C180.353 183.168 180.46 182.91 180.65 182.72C180.84 182.529 181.099 182.422 181.368 182.422H202.683C202.952 182.422 203.21 182.529 203.4 182.72C203.591 182.91 203.698 183.168 203.698 183.437C203.698 183.707 203.591 183.965 203.4 184.155C203.21 184.345 202.952 184.452 202.683 184.452Z" fill="#12189B"/>
<path d="M204.5 170.76H180.84C180.571 170.76 180.313 170.653 180.122 170.463C179.932 170.272 179.825 170.014 179.825 169.745C179.825 169.476 179.932 169.218 180.122 169.027C180.313 168.837 180.571 168.73 180.84 168.73H204.54C204.809 168.73 205.068 168.837 205.258 169.027C205.448 169.218 205.555 169.476 205.555 169.745C205.555 170.014 205.448 170.272 205.258 170.463C205.068 170.653 204.809 170.76 204.54 170.76H204.5Z" fill="#12189B"/>
<path d="M199.607 158.814H182.423C182.154 158.814 181.896 158.707 181.706 158.516C181.515 158.326 181.408 158.068 181.408 157.799C181.408 157.529 181.515 157.271 181.706 157.081C181.896 156.891 182.154 156.784 182.423 156.784H199.607C199.876 156.784 200.135 156.891 200.325 157.081C200.515 157.271 200.622 157.529 200.622 157.799C200.622 158.068 200.515 158.326 200.325 158.516C200.135 158.707 199.876 158.814 199.607 158.814Z" fill="#12189B"/>
<path d="M135.003 191.192V153.201H125.705V191.192H135.003Z" fill="white"/>
<path d="M135.003 192.207H125.705C125.436 192.207 125.178 192.1 124.987 191.91C124.797 191.719 124.69 191.461 124.69 191.192V153.201C124.69 152.931 124.797 152.673 124.987 152.483C125.178 152.292 125.436 152.186 125.705 152.186H135.003C135.272 152.186 135.53 152.292 135.72 152.483C135.911 152.673 136.018 152.931 136.018 153.201V191.192C136.018 191.461 135.911 191.719 135.72 191.91C135.53 192.1 135.272 192.207 135.003 192.207ZM126.72 190.177H133.988V154.216H126.72V190.177Z" fill="#12189B"/>
<path d="M31.7872 193.73H125.705V150.673H31.7872" fill="#EDEEFD"/>
<path d="M125.705 194.745H31.7872C31.518 194.745 31.2599 194.638 31.0695 194.447C30.8792 194.257 30.7722 193.999 30.7722 193.73C30.7722 193.46 30.8792 193.202 31.0695 193.012C31.2599 192.821 31.518 192.715 31.7872 192.715H124.69V151.688H31.7872C31.518 151.688 31.2599 151.581 31.0695 151.391C30.8792 151.201 30.7722 150.942 30.7722 150.673C30.7722 150.404 30.8792 150.146 31.0695 149.955C31.2599 149.765 31.518 149.658 31.7872 149.658H125.705C125.974 149.658 126.233 149.765 126.423 149.955C126.613 150.146 126.72 150.404 126.72 150.673V193.73C126.72 193.999 126.613 194.257 126.423 194.447C126.233 194.638 125.974 194.745 125.705 194.745V194.745Z" fill="#12189B"/>
<path d="M114.489 163.046C115.936 163.046 117.108 161.874 117.108 160.427C117.108 158.981 115.936 157.809 114.489 157.809C113.043 157.809 111.871 158.981 111.871 160.427C111.871 161.874 113.043 163.046 114.489 163.046Z" fill="#12189B"/>
<path d="M91.9361 127.491C91.9361 127.491 92.7481 135.52 93.5601 140.412C94.3721 145.304 104.959 152.592 106.045 162.935C107.131 173.278 107.405 181.661 104.695 184.646C101.985 187.63 96.5746 186.544 96.5746 186.544V198.845C96.5746 206.082 88.6373 206.62 86.2825 201.89C86.2825 201.89 85.166 210.01 79.4719 210.711C73.0063 211.533 72.6003 203.697 72.6003 203.697C70.8299 205.011 68.6493 205.652 66.4494 205.504C63.0086 205.149 60.6538 198.815 60.6538 198.815C60.6538 198.815 58.299 202.428 53.7822 199.901C49.2655 197.374 49.9861 195.74 49.9861 186.513C49.9861 177.287 49.2553 168.06 51.062 163.168C52.8687 158.276 59.385 143.274 59.5677 139.113C59.7504 134.951 59.2125 127.46 59.2125 127.46L91.9361 127.491Z" fill="#FFC9B0"/>
<path d="M78.5178 211.817C77.0648 211.844 75.65 211.351 74.5288 210.426C73.1064 209.09 72.1495 207.332 71.7985 205.412C70.12 206.314 68.216 206.708 66.3175 206.549C63.3841 206.245 61.2932 202.733 60.3087 200.652C58.8369 201.789 56.3908 202.57 53.2646 200.814C48.8189 198.328 48.8493 196.196 48.9204 189.852C48.9204 188.837 48.9204 187.822 48.9204 186.543C48.9204 184.453 48.9204 182.351 48.8392 180.311C48.7174 173.369 48.5956 166.802 50.0674 162.853C50.514 161.645 51.2346 159.808 52.0974 157.778C54.6146 151.526 58.4106 142.086 58.5324 139.102C58.7151 135.042 58.1772 127.643 58.1772 127.572C58.1669 127.434 58.185 127.295 58.2304 127.164C58.2758 127.033 58.3475 126.913 58.4411 126.811C58.5369 126.707 58.6532 126.625 58.7825 126.569C58.9118 126.513 59.0513 126.485 59.1922 126.486H91.9361C92.1886 126.485 92.4325 126.577 92.6202 126.746C92.8079 126.915 92.9259 127.148 92.9511 127.399C92.9511 127.481 93.7732 135.458 94.5751 140.249C94.8491 141.924 96.6558 144.177 98.7366 146.776C102.147 151.029 106.38 156.317 107.07 162.833C108.237 173.998 108.41 182.118 105.446 185.336C103.203 187.812 99.4978 187.873 97.5795 187.711V198.876C97.5795 203.159 95.0724 205.28 92.7176 205.839C91.6753 206.078 90.5904 206.061 89.5562 205.789C88.5219 205.516 87.5692 204.997 86.7799 204.275C85.978 206.955 84.0191 211.218 79.5836 211.776C79.2297 211.815 78.8736 211.829 78.5178 211.817V211.817ZM72.5699 202.682C72.7167 202.683 72.8618 202.714 72.9962 202.773C73.1648 202.851 73.3088 202.974 73.4126 203.127C73.5164 203.281 73.576 203.461 73.5849 203.646C73.5849 203.646 73.8082 207.158 75.8382 208.843C76.3223 209.229 76.8839 209.505 77.4848 209.654C78.0856 209.803 78.7114 209.821 79.3196 209.706C84.1815 209.087 85.2472 201.819 85.2574 201.748C85.2856 201.532 85.3827 201.33 85.5344 201.173C85.6861 201.017 85.8843 200.913 86.0996 200.878C86.3149 200.842 86.5358 200.877 86.7297 200.977C86.9235 201.078 87.0799 201.237 87.1757 201.433C87.638 202.336 88.388 203.059 89.3072 203.487C90.2264 203.916 91.2623 204.025 92.2507 203.798C94.2807 203.311 95.5394 201.454 95.5394 198.815V186.543C95.5403 186.393 95.5745 186.246 95.6395 186.111C95.7044 185.975 95.7985 185.856 95.9149 185.762C96.0308 185.666 96.1665 185.597 96.3122 185.561C96.4578 185.524 96.6099 185.52 96.7574 185.549C96.7574 185.549 101.65 186.472 103.944 183.955C106.562 181.073 105.903 171.268 105.04 163.036C104.41 157.108 100.381 152.084 97.143 148.034C94.8796 145.213 92.9308 142.777 92.5654 140.574C91.9158 136.687 91.256 130.759 91.0226 128.506H60.2782C60.4203 130.749 60.7045 135.915 60.5624 139.184C60.4203 142.452 56.6953 151.77 53.9649 158.499C53.1326 160.529 52.412 162.356 51.9349 163.574C50.6053 167.167 50.7169 173.541 50.8387 180.291C50.8387 182.321 50.9199 184.452 50.9199 186.564C50.9199 187.802 50.9199 188.908 50.9199 189.893C50.8489 196.196 50.8387 197.17 54.2288 199.028C57.7712 201.058 59.5678 198.551 59.7606 198.267C59.8644 198.11 60.0094 197.986 60.1796 197.907C60.3498 197.828 60.5386 197.798 60.7249 197.82C60.9098 197.842 61.0853 197.914 61.2321 198.028C61.3789 198.143 61.4914 198.295 61.5571 198.47C62.1154 199.962 64.2165 204.265 66.5002 204.509C68.4348 204.63 70.3503 204.066 71.9101 202.915C72.0996 202.773 72.333 202.701 72.5699 202.712V202.682Z" fill="#12189B"/>
<path d="M96.595 187.559C96.3258 187.559 96.0676 187.452 95.8772 187.261C95.6869 187.071 95.58 186.813 95.58 186.544V172.07C95.58 171.8 95.6869 171.542 95.8772 171.352C96.0676 171.162 96.3258 171.055 96.595 171.055C96.8642 171.055 97.1223 171.162 97.3127 171.352C97.503 171.542 97.61 171.8 97.61 172.07V186.544C97.61 186.813 97.503 187.071 97.3127 187.261C97.1223 187.452 96.8642 187.559 96.595 187.559Z" fill="#12189B"/>
<path d="M86.2623 202.936C85.9931 202.936 85.7349 202.829 85.5446 202.639C85.3543 202.448 85.2473 202.19 85.2473 201.921V180.606C85.2473 180.337 85.3543 180.078 85.5446 179.888C85.7349 179.698 85.9931 179.591 86.2623 179.591C86.5315 179.591 86.7897 179.698 86.98 179.888C87.1704 180.078 87.2773 180.337 87.2773 180.606V201.921C87.2773 202.19 87.1704 202.448 86.98 202.639C86.7897 202.829 86.5315 202.936 86.2623 202.936Z" fill="#12189B"/>
<path d="M72.5801 204.742C72.3109 204.742 72.0527 204.636 71.8623 204.445C71.672 204.255 71.5651 203.997 71.5651 203.727V180.027C71.5651 179.758 71.672 179.5 71.8623 179.309C72.0527 179.119 72.3109 179.012 72.5801 179.012C72.8493 179.012 73.1074 179.119 73.2978 179.309C73.4881 179.5 73.5951 179.758 73.5951 180.027V203.727C73.5951 203.997 73.4881 204.255 73.2978 204.445C73.1074 204.636 72.8493 204.742 72.5801 204.742Z" fill="#12189B"/>
<path d="M60.6335 199.86C60.3643 199.86 60.1062 199.753 59.9158 199.563C59.7255 199.373 59.6185 199.115 59.6185 198.845V181.661C59.6185 181.392 59.7255 181.134 59.9158 180.944C60.1062 180.753 60.3643 180.646 60.6335 180.646C60.9027 180.646 61.1609 180.753 61.3512 180.944C61.5416 181.134 61.6485 181.392 61.6485 181.661V198.845C61.6485 199.115 61.5416 199.373 61.3512 199.563C61.1609 199.753 60.9027 199.86 60.6335 199.86Z" fill="#12189B"/>
<path d="M94.027 124.943H56.0355V134.24H94.027V124.943Z" fill="#12189B"/>
<path d="M94.027 135.245H55.995C55.7258 135.245 55.4676 135.139 55.2773 134.948C55.0869 134.758 54.98 134.5 54.98 134.23V124.943C54.98 124.674 55.0869 124.416 55.2773 124.226C55.4676 124.035 55.7258 123.928 55.995 123.928H93.9864C94.2556 123.928 94.5138 124.035 94.7041 124.226C94.8945 124.416 95.0014 124.674 95.0014 124.943V134.23C95.0016 134.493 94.9003 134.745 94.7186 134.934C94.537 135.123 94.2891 135.235 94.027 135.245V135.245ZM57.0506 133.215H93.012V125.958H57.01L57.0506 133.215Z" fill="#12189B"/>
</g>
<defs>
<filter id="filter0_d_699_2137" x="0.772217" y="0" width="266.456" height="263.918" filterUnits="userSpaceOnUse" color-interpolation-filters="sRGB">
<feFlood flood-opacity="0" result="BackgroundImageFix"/>
<feColorMatrix in="SourceAlpha" type="matrix" values="0 0 0 0 0 0 0 0 0 0 0 0 0 0 0 0 0 0 127 0" result="hardAlpha"/>
<feOffset dx="10" dy="10"/>
<feGaussianBlur stdDeviation="20"/>
<feComposite in2="hardAlpha" operator="out"/>
<feColorMatrix type="matrix" values="0 0 0 0 0.779167 0 0 0 0 0.779167 0 0 0 0 0.779167 0 0 0 0.25 0"/>
<feBlend mode="normal" in2="BackgroundImageFix" result="effect1_dropShadow_699_2137"/>
<feBlend mode="normal" in="SourceGraphic" in2="effect1_dropShadow_699_2137" result="shape"/>
</filter>
</defs>
</svg>
